<svg xmlns="http://www.w3.org/2000/svg" xmlns:xlink="http://www.w3.org/1999/xlink" width="250" zoomAndPan="magnify" viewBox="0 0 187.5 37.5" height="50" preserveAspectRatio="xMidYMid meet" version="1.0"><defs><g/><clipPath id="d42de78af7"><path d="M 50.804688 17.359375 L 65.652344 17.359375 L 65.652344 29.070312 L 50.804688 29.070312 Z M 50.804688 17.359375 " clip-rule="nonzero"/></clipPath><clipPath id="0b72bb07dd"><path d="M 72.667969 16.957031 L 89.546875 16.957031 L 89.546875 30.265625 L 72.667969 30.265625 Z M 72.667969 16.957031 " clip-rule="nonzero"/></clipPath><clipPath id="5764eee1d8"><path d="M 72.757812 17.359375 L 87.605469 17.359375 L 87.605469 29.070312 L 72.757812 29.070312 Z M 72.757812 17.359375 " clip-rule="nonzero"/></clipPath><clipPath id="9c6dc6af75"><path d="M 52.253906 18.21875 L 61.875 18.21875 L 61.875 29.320312 L 52.253906 29.320312 Z M 52.253906 18.21875 " clip-rule="nonzero"/></clipPath><clipPath id="b7990e75fe"><path d="M 74.144531 18.21875 L 83.765625 18.21875 L 83.765625 29.320312 L 74.144531 29.320312 Z M 74.144531 18.21875 " clip-rule="nonzero"/></clipPath><clipPath id="bedeb88db7"><path d="M 29.734375 16.558594 L 46.613281 16.558594 L 46.613281 29.871094 L 29.734375 29.871094 Z M 29.734375 16.558594 " clip-rule="nonzero"/></clipPath><clipPath id="5796985ad5"><path d="M 30 17.457031 L 43.796875 17.457031 L 43.796875 29 L 30 29 Z M 30 17.457031 " clip-rule="nonzero"/></clipPath></defs><g fill="#004aad" fill-opacity="1"><g transform="translate(25.619805, 32.478276)"><g><path d="M 3.46875 -2.328125 C 1.71875 -4.242188 0.84375 -6.59375 0.84375 -9.375 C 0.84375 -12.15625 1.71875 -14.507812 3.46875 -16.4375 C 5.226562 -18.363281 7.460938 -19.328125 10.171875 -19.328125 C 12.660156 -19.328125 14.710938 -18.546875 16.328125 -16.984375 L 16.328125 -18.78125 L 22.8125 -18.78125 L 22.8125 0 L 16.40625 0 L 16.40625 -2.125 L 16.328125 -2.125 C 14.710938 -0.34375 12.660156 0.546875 10.171875 0.546875 C 7.460938 0.546875 5.226562 -0.410156 3.46875 -2.328125 Z M 8.984375 -12.546875 C 8.140625 -11.722656 7.71875 -10.664062 7.71875 -9.375 C 7.71875 -8.082031 8.117188 -7.023438 8.921875 -6.203125 C 9.734375 -5.390625 10.800781 -4.984375 12.125 -4.984375 C 13.382812 -4.984375 14.421875 -5.394531 15.234375 -6.21875 C 16.054688 -7.050781 16.46875 -8.101562 16.46875 -9.375 C 16.46875 -10.664062 16.046875 -11.722656 15.203125 -12.546875 C 14.367188 -13.378906 13.34375 -13.796875 12.125 -13.796875 C 10.875 -13.796875 9.828125 -13.378906 8.984375 -12.546875 Z M 8.984375 -12.546875 "/></g></g></g><g fill="#004aad" fill-opacity="1"><g transform="translate(47.356897, 32.478276)"><g><path d="M 3.46875 -2.328125 C 1.71875 -4.242188 0.84375 -6.59375 0.84375 -9.375 C 0.84375 -12.15625 1.71875 -14.507812 3.46875 -16.4375 C 5.226562 -18.363281 7.460938 -19.328125 10.171875 -19.328125 C 12.660156 -19.328125 14.710938 -18.546875 16.328125 -16.984375 L 16.328125 -31.484375 L 22.8125 -31.484375 L 22.8125 0 L 16.40625 0 L 16.40625 -2.125 L 16.328125 -2.125 C 14.710938 -0.34375 12.660156 0.546875 10.171875 0.546875 C 7.460938 0.546875 5.226562 -0.410156 3.46875 -2.328125 Z M 8.984375 -12.546875 C 8.140625 -11.722656 7.71875 -10.664062 7.71875 -9.375 C 7.71875 -8.082031 8.117188 -7.023438 8.921875 -6.203125 C 9.734375 -5.390625 10.800781 -4.984375 12.125 -4.984375 C 13.382812 -4.984375 14.421875 -5.394531 15.234375 -6.21875 C 16.054688 -7.050781 16.46875 -8.101562 16.46875 -9.375 C 16.46875 -10.664062 16.046875 -11.722656 15.203125 -12.546875 C 14.367188 -13.378906 13.34375 -13.796875 12.125 -13.796875 C 10.875 -13.796875 9.828125 -13.378906 8.984375 -12.546875 Z M 8.984375 -12.546875 "/></g></g></g><g fill="#004aad" fill-opacity="1"><g transform="translate(69.093994, 32.478276)"><g><path d="M 3.46875 -2.328125 C 1.71875 -4.242188 0.84375 -6.59375 0.84375 -9.375 C 0.84375 -12.15625 1.71875 -14.507812 3.46875 -16.4375 C 5.226562 -18.363281 7.460938 -19.328125 10.171875 -19.328125 C 12.660156 -19.328125 14.710938 -18.546875 16.328125 -16.984375 L 16.328125 -31.484375 L 22.8125 -31.484375 L 22.8125 0 L 16.40625 0 L 16.40625 -2.125 L 16.328125 -2.125 C 14.710938 -0.34375 12.660156 0.546875 10.171875 0.546875 C 7.460938 0.546875 5.226562 -0.410156 3.46875 -2.328125 Z M 8.984375 -12.546875 C 8.140625 -11.722656 7.71875 -10.664062 7.71875 -9.375 C 7.71875 -8.082031 8.117188 -7.023438 8.921875 -6.203125 C 9.734375 -5.390625 10.800781 -4.984375 12.125 -4.984375 C 13.382812 -4.984375 14.421875 -5.394531 15.234375 -6.21875 C 16.054688 -7.050781 16.46875 -8.101562 16.46875 -9.375 C 16.46875 -10.664062 16.046875 -11.722656 15.203125 -12.546875 C 14.367188 -13.378906 13.34375 -13.796875 12.125 -13.796875 C 10.875 -13.796875 9.828125 -13.378906 8.984375 -12.546875 Z M 8.984375 -12.546875 "/></g></g></g><g fill="#004aad" fill-opacity="1"><g transform="translate(90.831094, 32.478276)"><g><path d="M 8.3125 -18.78125 L 8.3125 -9.84375 C 8.3125 -7.988281 8.59375 -6.671875 9.15625 -5.890625 C 9.71875 -5.109375 10.664062 -4.71875 12 -4.71875 C 13.34375 -4.71875 14.296875 -5.109375 14.859375 -5.890625 C 15.421875 -6.671875 15.703125 -7.988281 15.703125 -9.84375 L 15.703125 -18.78125 L 22.1875 -18.78125 L 22.1875 -8.28125 C 22.1875 -5.15625 21.375 -2.898438 19.75 -1.515625 C 18.125 -0.140625 15.539062 0.546875 12 0.546875 C 8.46875 0.546875 5.890625 -0.140625 4.265625 -1.515625 C 2.640625 -2.898438 1.828125 -5.15625 1.828125 -8.28125 L 1.828125 -18.78125 Z M 8.3125 -18.78125 "/></g></g></g><g fill="#004aad" fill-opacity="1"><g transform="translate(111.580075, 32.478276)"><g><path d="M 3.296875 -18.78125 L 3.296875 -22.765625 C 3.316406 -25.578125 3.972656 -27.820312 5.265625 -29.5 C 6.566406 -31.1875 8.363281 -32.03125 10.65625 -32.03125 C 11.632812 -32.03125 12.566406 -31.890625 13.453125 -31.609375 C 14.347656 -31.328125 14.988281 -31.039062 15.375 -30.75 L 16 -30.34375 L 13.734375 -25.765625 C 13.140625 -26.109375 12.488281 -26.28125 11.78125 -26.28125 C 10.976562 -26.28125 10.441406 -26.003906 10.171875 -25.453125 C 9.910156 -24.910156 9.78125 -23.957031 9.78125 -22.59375 L 9.78125 -18.78125 L 14.09375 -18.78125 L 14.09375 -13.84375 L 9.78125 -13.84375 L 9.78125 0 L 3.296875 0 L 3.296875 -13.84375 L 0.578125 -13.84375 L 0.578125 -18.78125 Z M 3.296875 -18.78125 "/></g></g></g><g fill="#004aad" fill-opacity="1"><g transform="translate(122.045454, 32.478276)"><g><path d="M 2.203125 0 L 2.203125 -31.484375 L 8.671875 -31.484375 L 8.671875 0 Z M 2.203125 0 "/></g></g></g><g fill="#004aad" fill-opacity="1"><g transform="translate(129.656299, 32.478276)"><g><path d="M 2.8125 -29.25 C 3.570312 -30.007812 4.476562 -30.390625 5.53125 -30.390625 C 6.582031 -30.390625 7.484375 -30.007812 8.234375 -29.25 C 8.992188 -28.488281 9.375 -27.582031 9.375 -26.53125 C 9.375 -25.488281 8.992188 -24.585938 8.234375 -23.828125 C 7.484375 -23.078125 6.582031 -22.703125 5.53125 -22.703125 C 4.476562 -22.703125 3.570312 -23.078125 2.8125 -23.828125 C 2.0625 -24.585938 1.6875 -25.488281 1.6875 -26.53125 C 1.6875 -27.582031 2.0625 -28.488281 2.8125 -29.25 Z M 2.203125 -18.78125 L 2.203125 0 L 8.671875 0 L 8.671875 -18.78125 Z M 2.203125 -18.78125 "/></g></g></g><g fill="#004aad" fill-opacity="1"><g transform="translate(137.450128, 32.478276)"><g><path d="M 23.9375 0 L 16.109375 0 L 11.96875 -5.3125 L 7.828125 0 L 0 0 L 8.015625 -9.8125 L 1.140625 -18.78125 L 8.71875 -18.78125 L 11.96875 -14.421875 L 15.234375 -18.78125 L 22.8125 -18.78125 L 15.921875 -9.8125 Z M 23.9375 0 "/></g></g></g><g clip-path="url(#d42de78af7)"><path fill="#004aad" d="M 50.804688 17.359375 L 65.671875 17.359375 L 65.671875 29.070312 L 50.804688 29.070312 Z M 50.804688 17.359375 " fill-opacity="1" fill-rule="nonzero"/></g><g clip-path="url(#0b72bb07dd)"><path fill="#004aad" d="M 72.667969 16.957031 L 89.566406 16.957031 L 89.566406 30.265625 L 72.667969 30.265625 Z M 72.667969 16.957031 " fill-opacity="1" fill-rule="nonzero"/></g><g clip-path="url(#5764eee1d8)"><path fill="#004aad" d="M 72.757812 17.359375 L 87.621094 17.359375 L 87.621094 29.070312 L 72.757812 29.070312 Z M 72.757812 17.359375 " fill-opacity="1" fill-rule="nonzero"/></g><g clip-path="url(#9c6dc6af75)"><path fill="#ffc800" d="M 53.300781 28.964844 L 61.605469 24.03125 L 61.605469 24.027344 C 61.765625 23.933594 61.875 23.761719 61.875 23.5625 C 61.875 23.386719 61.785156 23.226562 61.652344 23.128906 L 61.648438 23.125 C 61.621094 23.105469 61.59375 23.09375 61.566406 23.078125 L 53.296875 18.3125 C 53.210938 18.257812 53.109375 18.222656 53 18.222656 C 52.703125 18.222656 52.460938 18.464844 52.460938 18.761719 L 52.460938 28.519531 C 52.460938 28.816406 52.703125 29.058594 53 29.058594 C 53.109375 29.058594 53.214844 29.023438 53.300781 28.964844 Z M 53.300781 28.964844 " fill-opacity="1" fill-rule="nonzero"/></g><g fill="#004aad" fill-opacity="0.6"><g transform="translate(64.051617, 34.646331)"><g><path d="M 2.203125 0 L 2.203125 -31.484375 L 8.671875 -31.484375 L 8.671875 0 Z M 2.203125 0 "/></g></g></g><g fill="#164c94" fill-opacity="1"><g transform="translate(61.883566, 32.478276)"><g><path d="M 2.203125 0 L 2.203125 -31.484375 L 8.671875 -31.484375 L 8.671875 0 Z M 2.203125 0 "/></g></g></g><g clip-path="url(#b7990e75fe)"><path fill="#ffc800" d="M 75.191406 28.964844 L 83.496094 24.03125 L 83.496094 24.027344 C 83.65625 23.933594 83.765625 23.761719 83.765625 23.5625 C 83.765625 23.386719 83.675781 23.226562 83.542969 23.128906 L 83.539062 23.125 C 83.511719 23.105469 83.484375 23.09375 83.457031 23.078125 L 75.1875 18.3125 C 75.101562 18.257812 75 18.222656 74.890625 18.222656 C 74.589844 18.222656 74.351562 18.464844 74.351562 18.761719 L 74.351562 28.519531 C 74.351562 28.816406 74.589844 29.058594 74.890625 29.058594 C 75 29.058594 75.105469 29.023438 75.191406 28.964844 Z M 75.191406 28.964844 " fill-opacity="1" fill-rule="nonzero"/></g><g clip-path="url(#bedeb88db7)"><path fill="#004aad" d="M 29.734375 16.558594 L 46.632812 16.558594 L 46.632812 29.871094 L 29.734375 29.871094 Z M 29.734375 16.558594 " fill-opacity="1" fill-rule="nonzero"/></g><g clip-path="url(#5796985ad5)"><path fill="#ffc800" d="M 40.09375 18.492188 C 39.167969 17.839844 38.039062 17.457031 36.8125 17.457031 C 33.640625 17.457031 31.0625 20.035156 31.0625 23.210938 C 31.0625 23.371094 31.070312 23.53125 31.082031 23.691406 C 30.070312 25 29.769531 26.171875 30.242188 27.003906 C 30.613281 27.652344 31.433594 28.003906 32.574219 28.003906 C 32.851562 28.003906 33.148438 27.984375 33.46875 27.941406 C 34.980469 27.738281 36.761719 27.089844 38.476562 26.097656 C 39.5625 25.46875 40.523438 24.765625 41.300781 24.050781 C 41.683594 23.699219 42.011719 23.359375 42.300781 23.019531 C 42.34375 22.964844 42.386719 22.910156 42.429688 22.871094 C 43.484375 21.558594 43.886719 20.300781 43.378906 19.429688 C 42.910156 18.585938 41.746094 18.265625 40.09375 18.492188 Z M 30.792969 26.683594 C 30.515625 26.195312 30.675781 25.457031 31.230469 24.59375 C 31.496094 25.660156 32.0625 26.621094 32.828125 27.355469 C 31.804688 27.40625 31.082031 27.171875 30.792969 26.683594 Z M 42.398438 21.835938 C 42.128906 20.757812 41.566406 19.8125 40.796875 19.066406 C 41.820312 19.011719 42.558594 19.246094 42.832031 19.738281 C 43.109375 20.214844 42.949219 20.972656 42.398438 21.835938 Z M 42.398438 21.835938 " fill-opacity="1" fill-rule="nonzero"/></g><path fill="#ffc800" d="M 38.921875 26.546875 C 37.324219 27.472656 35.664062 28.101562 34.214844 28.34375 C 35.003906 28.738281 35.886719 28.964844 36.8125 28.964844 C 39.820312 28.964844 42.289062 26.652344 42.546875 23.710938 C 41.660156 24.691406 40.414062 25.683594 38.921875 26.546875 Z M 38.921875 26.546875 " fill-opacity="1" fill-rule="nonzero"/><g fill="#004aad" fill-opacity="0.6"><g transform="translate(84.797532, 34.646331)"><g><path d="M 2.203125 0 L 2.203125 -31.484375 L 8.671875 -31.484375 L 8.671875 0 Z M 2.203125 0 "/></g></g></g><g fill="#164c94" fill-opacity="1"><g transform="translate(82.629475, 32.478276)"><g><path d="M 2.203125 0 L 2.203125 -31.484375 L 8.671875 -31.484375 L 8.671875 0 Z M 2.203125 0 "/></g></g></g></svg>