<svg xmlns="http://www.w3.org/2000/svg" xmlns:xlink="http://www.w3.org/1999/xlink" width="250" zoomAndPan="magnify" viewBox="0 0 187.5 37.5" height="50" preserveAspectRatio="xMidYMid meet" version="1.0"><defs><g/><clipPath id="cee2f1cb19"><path d="M 59.097656 18.828125 L 71.0625 18.828125 L 71.0625 28.265625 L 59.097656 28.265625 Z M 59.097656 18.828125 " clip-rule="nonzero"/></clipPath><clipPath id="d732af5913"><path d="M 76.710938 18.503906 L 90.3125 18.503906 L 90.3125 29.230469 L 76.710938 29.230469 Z M 76.710938 18.503906 " clip-rule="nonzero"/></clipPath><clipPath id="41c6f27d8e"><path d="M 76.785156 18.828125 L 88.75 18.828125 L 88.75 28.265625 L 76.785156 28.265625 Z M 76.785156 18.828125 " clip-rule="nonzero"/></clipPath><clipPath id="87cce461c6"><path d="M 60.609375 19.511719 L 68.011719 19.511719 L 68.011719 28.394531 L 60.609375 28.394531 Z M 60.609375 19.511719 " clip-rule="nonzero"/></clipPath><clipPath id="601c25b415"><path d="M 78.25 19.511719 L 85.652344 19.511719 L 85.652344 28.394531 L 78.25 28.394531 Z M 78.25 19.511719 " clip-rule="nonzero"/></clipPath><clipPath id="6ec192cc2f"><path d="M 42.117188 18.183594 L 55.71875 18.183594 L 55.71875 28.910156 L 42.117188 28.910156 Z M 42.117188 18.183594 " clip-rule="nonzero"/></clipPath><clipPath id="bc9cee1751"><path d="M 42.117188 18.90625 L 53.21875 18.90625 L 53.21875 28 L 42.117188 28 Z M 42.117188 18.90625 " clip-rule="nonzero"/></clipPath><clipPath id="aa9eeba87c"><path d="M 45 23 L 53 23 L 53 28.527344 L 45 28.527344 Z M 45 23 " clip-rule="nonzero"/></clipPath></defs><g fill="#004aad" fill-opacity="1"><g transform="translate(38.802375, 31.011801)"><g><path d="M 2.796875 -1.875 C 1.378906 -3.414062 0.671875 -5.304688 0.671875 -7.546875 C 0.671875 -9.796875 1.378906 -11.695312 2.796875 -13.25 C 4.210938 -14.800781 6.015625 -15.578125 8.203125 -15.578125 C 10.203125 -15.578125 11.851562 -14.945312 13.15625 -13.6875 L 13.15625 -15.140625 L 18.375 -15.140625 L 18.375 0 L 13.21875 0 L 13.21875 -1.71875 L 13.15625 -1.71875 C 11.851562 -0.28125 10.203125 0.4375 8.203125 0.4375 C 6.015625 0.4375 4.210938 -0.332031 2.796875 -1.875 Z M 7.234375 -10.109375 C 6.554688 -9.441406 6.21875 -8.585938 6.21875 -7.546875 C 6.21875 -6.503906 6.539062 -5.65625 7.1875 -5 C 7.84375 -4.34375 8.703125 -4.015625 9.765625 -4.015625 C 10.785156 -4.015625 11.625 -4.347656 12.28125 -5.015625 C 12.945312 -5.679688 13.28125 -6.523438 13.28125 -7.546875 C 13.28125 -8.585938 12.9375 -9.441406 12.25 -10.109375 C 11.570312 -10.785156 10.742188 -11.125 9.765625 -11.125 C 8.765625 -11.125 7.921875 -10.785156 7.234375 -10.109375 Z M 7.234375 -10.109375 "/></g></g></g><g fill="#004aad" fill-opacity="1"><g transform="translate(56.318252, 31.011801)"><g><path d="M 2.796875 -1.875 C 1.378906 -3.414062 0.671875 -5.304688 0.671875 -7.546875 C 0.671875 -9.796875 1.378906 -11.695312 2.796875 -13.25 C 4.210938 -14.800781 6.015625 -15.578125 8.203125 -15.578125 C 10.203125 -15.578125 11.851562 -14.945312 13.15625 -13.6875 L 13.15625 -25.375 L 18.375 -25.375 L 18.375 0 L 13.21875 0 L 13.21875 -1.71875 L 13.15625 -1.71875 C 11.851562 -0.28125 10.203125 0.4375 8.203125 0.4375 C 6.015625 0.4375 4.210938 -0.332031 2.796875 -1.875 Z M 7.234375 -10.109375 C 6.554688 -9.441406 6.21875 -8.585938 6.21875 -7.546875 C 6.21875 -6.503906 6.539062 -5.65625 7.1875 -5 C 7.84375 -4.34375 8.703125 -4.015625 9.765625 -4.015625 C 10.785156 -4.015625 11.625 -4.347656 12.28125 -5.015625 C 12.945312 -5.679688 13.28125 -6.523438 13.28125 -7.546875 C 13.28125 -8.585938 12.9375 -9.441406 12.25 -10.109375 C 11.570312 -10.785156 10.742188 -11.125 9.765625 -11.125 C 8.765625 -11.125 7.921875 -10.785156 7.234375 -10.109375 Z M 7.234375 -10.109375 "/></g></g></g><g fill="#004aad" fill-opacity="1"><g transform="translate(73.83413, 31.011801)"><g><path d="M 2.796875 -1.875 C 1.378906 -3.414062 0.671875 -5.304688 0.671875 -7.546875 C 0.671875 -9.796875 1.378906 -11.695312 2.796875 -13.25 C 4.210938 -14.800781 6.015625 -15.578125 8.203125 -15.578125 C 10.203125 -15.578125 11.851562 -14.945312 13.15625 -13.6875 L 13.15625 -25.375 L 18.375 -25.375 L 18.375 0 L 13.21875 0 L 13.21875 -1.71875 L 13.15625 -1.71875 C 11.851562 -0.28125 10.203125 0.4375 8.203125 0.4375 C 6.015625 0.4375 4.210938 -0.332031 2.796875 -1.875 Z M 7.234375 -10.109375 C 6.554688 -9.441406 6.21875 -8.585938 6.21875 -7.546875 C 6.21875 -6.503906 6.539062 -5.65625 7.1875 -5 C 7.84375 -4.34375 8.703125 -4.015625 9.765625 -4.015625 C 10.785156 -4.015625 11.625 -4.347656 12.28125 -5.015625 C 12.945312 -5.679688 13.28125 -6.523438 13.28125 -7.546875 C 13.28125 -8.585938 12.9375 -9.441406 12.25 -10.109375 C 11.570312 -10.785156 10.742188 -11.125 9.765625 -11.125 C 8.765625 -11.125 7.921875 -10.785156 7.234375 -10.109375 Z M 7.234375 -10.109375 "/></g></g></g><g fill="#004aad" fill-opacity="1"><g transform="translate(91.350017, 31.011801)"><g><path d="M 6.703125 -15.140625 L 6.703125 -7.9375 C 6.703125 -6.4375 6.925781 -5.375 7.375 -4.75 C 7.820312 -4.125 8.585938 -3.8125 9.671875 -3.8125 C 10.753906 -3.8125 11.519531 -4.125 11.96875 -4.75 C 12.425781 -5.375 12.65625 -6.4375 12.65625 -7.9375 L 12.65625 -15.140625 L 17.875 -15.140625 L 17.875 -6.671875 C 17.875 -4.148438 17.21875 -2.332031 15.90625 -1.21875 C 14.601562 -0.113281 12.523438 0.4375 9.671875 0.4375 C 6.828125 0.4375 4.75 -0.113281 3.4375 -1.21875 C 2.125 -2.332031 1.46875 -4.148438 1.46875 -6.671875 L 1.46875 -15.140625 Z M 6.703125 -15.140625 "/></g></g></g><g fill="#004aad" fill-opacity="1"><g transform="translate(108.069666, 31.011801)"><g><path d="M 2.65625 -15.140625 L 2.65625 -18.34375 C 2.675781 -20.601562 3.207031 -22.410156 4.25 -23.765625 C 5.289062 -25.128906 6.734375 -25.8125 8.578125 -25.8125 C 9.367188 -25.8125 10.125 -25.695312 10.84375 -25.46875 C 11.5625 -25.25 12.078125 -25.019531 12.390625 -24.78125 L 12.890625 -24.453125 L 11.0625 -20.765625 C 10.59375 -21.046875 10.070312 -21.1875 9.5 -21.1875 C 8.851562 -21.1875 8.421875 -20.960938 8.203125 -20.515625 C 7.984375 -20.078125 7.875 -19.304688 7.875 -18.203125 L 7.875 -15.140625 L 11.359375 -15.140625 L 11.359375 -11.15625 L 7.875 -11.15625 L 7.875 0 L 2.65625 0 L 2.65625 -11.15625 L 0.46875 -11.15625 L 0.46875 -15.140625 Z M 2.65625 -15.140625 "/></g></g></g><g fill="#004aad" fill-opacity="1"><g transform="translate(116.502737, 31.011801)"><g><path d="M 1.765625 0 L 1.765625 -25.375 L 6.984375 -25.375 L 6.984375 0 Z M 1.765625 0 "/></g></g></g><g fill="#004aad" fill-opacity="1"><g transform="translate(122.6356, 31.011801)"><g><path d="M 2.265625 -23.5625 C 2.878906 -24.175781 3.609375 -24.484375 4.453125 -24.484375 C 5.296875 -24.484375 6.019531 -24.175781 6.625 -23.5625 C 7.238281 -22.957031 7.546875 -22.234375 7.546875 -21.390625 C 7.546875 -20.546875 7.238281 -19.816406 6.625 -19.203125 C 6.019531 -18.597656 5.296875 -18.296875 4.453125 -18.296875 C 3.609375 -18.296875 2.878906 -18.597656 2.265625 -19.203125 C 1.660156 -19.816406 1.359375 -20.546875 1.359375 -21.390625 C 1.359375 -22.234375 1.660156 -22.957031 2.265625 -23.5625 Z M 1.765625 -15.140625 L 1.765625 0 L 6.984375 0 L 6.984375 -15.140625 Z M 1.765625 -15.140625 "/></g></g></g><g fill="#004aad" fill-opacity="1"><g transform="translate(128.91592, 31.011801)"><g><path d="M 19.296875 0 L 12.984375 0 L 9.640625 -4.28125 L 6.3125 0 L 0 0 L 6.453125 -7.90625 L 0.921875 -15.140625 L 7.015625 -15.140625 L 9.640625 -11.625 L 12.265625 -15.140625 L 18.375 -15.140625 L 12.828125 -7.90625 Z M 19.296875 0 "/></g></g></g><g clip-path="url(#cee2f1cb19)"><path fill="#004aad" d="M 59.097656 18.828125 L 71.074219 18.828125 L 71.074219 28.265625 L 59.097656 28.265625 Z M 59.097656 18.828125 " fill-opacity="1" fill-rule="nonzero"/></g><g clip-path="url(#d732af5913)"><path fill="#004aad" d="M 76.710938 18.503906 L 90.328125 18.503906 L 90.328125 29.230469 L 76.710938 29.230469 Z M 76.710938 18.503906 " fill-opacity="1" fill-rule="nonzero"/></g><g fill="#004aad" fill-opacity="0.4"><g transform="translate(86.488139, 32.758832)"><g><path d="M 1.765625 0 L 1.765625 -25.375 L 6.984375 -25.375 L 6.984375 0 Z M 1.765625 0 "/></g></g></g><g fill="#004aad" fill-opacity="1"><g transform="translate(84.741111, 31.011801)"><g><path d="M 1.765625 0 L 1.765625 -25.375 L 6.984375 -25.375 L 6.984375 0 Z M 1.765625 0 "/></g></g></g><g clip-path="url(#41c6f27d8e)"><path fill="#004aad" d="M 76.785156 18.828125 L 88.761719 18.828125 L 88.761719 28.265625 L 76.785156 28.265625 Z M 76.785156 18.828125 " fill-opacity="1" fill-rule="nonzero"/></g><g clip-path="url(#87cce461c6)"><path fill="#ffffff" d="M 61.113281 28.167969 L 67.792969 24.199219 L 67.796875 24.195312 C 67.925781 24.121094 68.011719 23.984375 68.011719 23.824219 C 68.011719 23.679688 67.941406 23.554688 67.832031 23.472656 L 67.835938 23.472656 L 67.828125 23.46875 C 67.808594 23.457031 67.785156 23.445312 67.765625 23.433594 L 61.109375 19.597656 C 61.042969 19.550781 60.960938 19.523438 60.871094 19.523438 C 60.632812 19.523438 60.4375 19.71875 60.4375 19.957031 L 60.4375 27.8125 C 60.4375 28.050781 60.632812 28.246094 60.871094 28.246094 C 60.960938 28.246094 61.042969 28.214844 61.113281 28.167969 Z M 61.113281 28.167969 " fill-opacity="1" fill-rule="nonzero"/></g><g fill="#004aad" fill-opacity="0.4"><g transform="translate(69.770952, 32.758832)"><g><path d="M 1.765625 0 L 1.765625 -25.375 L 6.984375 -25.375 L 6.984375 0 Z M 1.765625 0 "/></g></g></g><g fill="#004aad" fill-opacity="1"><g transform="translate(68.023924, 31.011801)"><g><path d="M 1.765625 0 L 1.765625 -25.375 L 6.984375 -25.375 L 6.984375 0 Z M 1.765625 0 "/></g></g></g><g clip-path="url(#601c25b415)"><path fill="#ffffff" d="M 78.753906 28.167969 L 85.433594 24.199219 L 85.433594 24.195312 C 85.5625 24.121094 85.652344 23.984375 85.652344 23.824219 C 85.652344 23.679688 85.582031 23.554688 85.472656 23.472656 L 85.46875 23.46875 C 85.449219 23.457031 85.425781 23.445312 85.402344 23.433594 L 78.75 19.597656 C 78.679688 19.550781 78.597656 19.523438 78.507812 19.523438 C 78.269531 19.523438 78.078125 19.71875 78.078125 19.957031 L 78.078125 27.8125 C 78.078125 28.050781 78.269531 28.246094 78.507812 28.246094 C 78.597656 28.246094 78.683594 28.214844 78.753906 28.167969 Z M 78.753906 28.167969 " fill-opacity="1" fill-rule="nonzero"/></g><g clip-path="url(#6ec192cc2f)"><path fill="#004aad" d="M 42.117188 18.183594 L 55.734375 18.183594 L 55.734375 28.910156 L 42.117188 28.910156 Z M 42.117188 18.183594 " fill-opacity="1" fill-rule="nonzero"/></g><g clip-path="url(#bc9cee1751)"><path fill="#ffffff" d="M 50.46875 19.742188 C 49.722656 19.214844 48.8125 18.90625 47.824219 18.90625 C 45.265625 18.90625 43.1875 20.984375 43.1875 23.542969 C 43.1875 23.671875 43.195312 23.800781 43.203125 23.929688 C 42.386719 24.988281 42.148438 25.933594 42.527344 26.601562 C 42.828125 27.125 43.488281 27.410156 44.40625 27.410156 C 44.628906 27.410156 44.871094 27.390625 45.128906 27.359375 C 46.347656 27.195312 47.78125 26.671875 49.164062 25.871094 C 50.039062 25.367188 50.8125 24.796875 51.441406 24.222656 C 51.75 23.941406 52.015625 23.664062 52.246094 23.390625 C 52.28125 23.347656 52.316406 23.304688 52.351562 23.269531 C 53.199219 22.214844 53.527344 21.199219 53.113281 20.496094 C 52.738281 19.816406 51.800781 19.558594 50.46875 19.742188 Z M 42.972656 26.34375 C 42.75 25.949219 42.878906 25.355469 43.324219 24.660156 C 43.539062 25.519531 43.996094 26.292969 44.613281 26.886719 C 43.789062 26.929688 43.203125 26.738281 42.972656 26.34375 Z M 52.324219 22.4375 C 52.109375 21.570312 51.65625 20.804688 51.035156 20.203125 C 51.859375 20.160156 52.453125 20.351562 52.675781 20.746094 C 52.898438 21.132812 52.769531 21.742188 52.324219 22.4375 Z M 52.324219 22.4375 " fill-opacity="1" fill-rule="nonzero"/></g><g clip-path="url(#aa9eeba87c)"><path fill="#ffffff" d="M 49.523438 26.234375 C 48.238281 26.980469 46.898438 27.488281 45.730469 27.683594 C 46.363281 28 47.078125 28.183594 47.824219 28.183594 C 50.246094 28.183594 52.238281 26.320312 52.445312 23.949219 C 51.730469 24.738281 50.726562 25.539062 49.523438 26.234375 Z M 49.523438 26.234375 " fill-opacity="1" fill-rule="nonzero"/></g></svg>