<svg xmlns="http://www.w3.org/2000/svg" xmlns:xlink="http://www.w3.org/1999/xlink" width="500" zoomAndPan="magnify" viewBox="0 0 375 187.499995" height="250" preserveAspectRatio="xMidYMid meet" version="1.2"><defs><clipPath id="a5acbd7319"><path d="M 13 32 L 92 32 L 92 110 L 13 110 Z M 13 32 "/></clipPath><clipPath id="98f3bef17a"><path d="M 10.0625 36.171875 L 85.480469 24.632812 L 97.703125 104.488281 L 22.285156 116.027344 Z M 10.0625 36.171875 "/></clipPath><clipPath id="3656bcd458"><path d="M 10.0625 36.171875 L 85.480469 24.632812 L 97.703125 104.488281 L 22.285156 116.027344 Z M 10.0625 36.171875 "/></clipPath><clipPath id="5e76813a6a"><rect x="0" width="275" y="0" height="94"/></clipPath><filter x="0%" y="0%" width="100%" filterUnits="objectBoundingBox" id="34aad61a42" height="100%"><feColorMatrix values="0 0 0 0 1 0 0 0 0 1 0 0 0 0 1 0 0 0 1 0" type="matrix" in="SourceGraphic"/></filter><clipPath id="da97737d26"><rect x="0" width="11" y="0" height="23"/></clipPath><clipPath id="3521740832"><rect x="0" width="11" y="0" height="23"/></clipPath><clipPath id="d9717393e9"><rect x="0" width="11" y="0" height="23"/></clipPath><clipPath id="dd35502551"><rect x="0" width="11" y="0" height="23"/></clipPath><clipPath id="c272bf0ef4"><path d="M 1 0.03125 L 7 0.03125 L 7 7 L 1 7 Z M 1 0.03125 "/></clipPath><clipPath id="17a0af305d"><rect x="0" width="11" y="0" height="23"/></clipPath></defs><g id="4f63ee7d9e"><g clip-rule="nonzero" clip-path="url(#a5acbd7319)"><g clip-rule="nonzero" clip-path="url(#98f3bef17a)"><g clip-rule="nonzero" clip-path="url(#3656bcd458)"><path style=" stroke:none;fill-rule:nonzero;fill:#d85c0c;fill-opacity:1;" d="M 13.875 57.675781 C 14.460938 58.042969 14.753906 57.207031 15.210938 56.964844 C 16.1875 56.449219 17.121094 55.84375 18.113281 55.359375 C 23.257812 52.820312 28.8125 51.355469 34.121094 49.238281 C 38.054688 47.671875 41.480469 45.253906 42.261719 40.894531 C 42.699219 38.425781 43.636719 37.753906 45.824219 37.546875 C 47.035156 37.433594 47.128906 37.800781 46.886719 38.699219 C 46.25 41.128906 46.417969 43.59375 46.679688 46.03125 C 46.8125 47.261719 46.503906 47.914062 45.386719 48.5 C 34.894531 53.972656 29.152344 62.726562 28.054688 74.421875 C 27.066406 84.925781 30.273438 94.125 38.160156 101.171875 C 46.824219 108.902344 57.074219 111.019531 68.269531 107.882812 C 74.917969 106.023438 80.753906 102.65625 85.140625 97.207031 C 91.246094 89.621094 92.988281 80.859375 91.324219 68.09375 C 90.269531 58.316406 79.914062 47.933594 68.222656 45.113281 C 62.300781 43.683594 56.5 44.179688 50.820312 46.191406 C 49.300781 46.730469 48.835938 46.296875 48.816406 44.789062 C 48.769531 41.214844 49.148438 37.773438 51.515625 34.867188 C 52.113281 34.136719 52.277344 33.4375 51.4375 32.816406 C 50.671875 32.246094 49.902344 32.390625 49.304688 33.089844 C 48.828125 33.652344 48.480469 34.308594 48.050781 34.910156 C 46.957031 36.441406 42.90625 37.09375 41.984375 35.800781 C 39.984375 32.984375 37.195312 32.394531 34.015625 32.730469 C 29.441406 33.210938 25.84375 35.628906 22.574219 38.613281 C 17.464844 43.28125 14.554688 49.105469 13.664062 55.953125 C 13.578125 56.546875 13.289062 57.308594 13.875 57.675781 Z M 13.875 57.675781 "/></g></g></g><g transform="matrix(1,0,0,1,82,65)"><g clip-path="url(#5e76813a6a)"><g style="fill:#d85c0c;fill-opacity:1;"><g transform="translate(13.635791, 36.838305)"><path style="stroke:none" d="M 0.34375 0 C 0.789062 -0.445312 1.097656 -0.976562 1.265625 -1.59375 C 1.429688 -2.207031 1.515625 -3 1.515625 -3.96875 L 1.515625 -19.5625 C 1.515625 -20.53125 1.429688 -21.320312 1.265625 -21.9375 C 1.097656 -22.550781 0.789062 -23.082031 0.34375 -23.53125 L 8.578125 -23.53125 C 9.296875 -23.53125 9.78125 -23.28125 10.03125 -22.78125 C 10.289062 -22.28125 10.421875 -21.601562 10.421875 -20.75 L 10.421875 -20.171875 C 10.421875 -19.765625 10.441406 -19.53125 10.484375 -19.46875 C 10.535156 -19.40625 10.59375 -19.375 10.65625 -19.375 C 10.90625 -19.375 11.144531 -19.53125 11.375 -19.84375 C 11.613281 -20.15625 11.890625 -20.546875 12.203125 -21.015625 C 12.515625 -21.484375 12.914062 -21.945312 13.40625 -22.40625 C 13.90625 -22.863281 14.519531 -23.25 15.25 -23.5625 C 15.976562 -23.882812 16.867188 -24.046875 17.921875 -24.046875 C 18.523438 -24.046875 19.148438 -23.96875 19.796875 -23.8125 C 20.453125 -23.65625 21.003906 -23.429688 21.453125 -23.140625 C 21.898438 -22.847656 22.125 -22.476562 22.125 -22.03125 C 22.125 -21.820312 21.925781 -21.34375 21.53125 -20.59375 C 21.144531 -19.84375 20.738281 -19.039062 20.3125 -18.1875 C 19.84375 -17.269531 19.414062 -16.4375 19.03125 -15.6875 C 18.644531 -14.9375 18.296875 -14.5625 17.984375 -14.5625 C 17.628906 -14.5625 17.347656 -14.710938 17.140625 -15.015625 C 16.941406 -15.316406 16.726562 -15.65625 16.5 -16.03125 C 16.28125 -16.414062 15.953125 -16.757812 15.515625 -17.0625 C 15.078125 -17.363281 14.457031 -17.515625 13.65625 -17.515625 C 12.707031 -17.515625 12.003906 -17.273438 11.546875 -16.796875 C 11.085938 -16.316406 10.785156 -15.738281 10.640625 -15.0625 C 10.492188 -14.394531 10.421875 -13.742188 10.421875 -13.109375 L 10.421875 -3.96875 C 10.421875 -3 10.503906 -2.207031 10.671875 -1.59375 C 10.835938 -0.976562 11.144531 -0.445312 11.59375 0 Z M 0.34375 0 "/></g></g><g style="fill:#d85c0c;fill-opacity:1;"><g transform="translate(36.098056, 36.838305)"><path style="stroke:none" d="M 0.84375 -5.25 C 0.84375 -7.039062 1.203125 -8.613281 1.921875 -9.96875 C 2.640625 -11.320312 3.609375 -12.484375 4.828125 -13.453125 C 6.046875 -14.429688 7.410156 -15.234375 8.921875 -15.859375 C 10.441406 -16.492188 11.984375 -16.976562 13.546875 -17.3125 C 14.046875 -17.425781 14.375 -17.628906 14.53125 -17.921875 C 14.6875 -18.210938 14.765625 -18.503906 14.765625 -18.796875 C 14.765625 -19.285156 14.691406 -19.789062 14.546875 -20.3125 C 14.398438 -20.84375 14.117188 -21.289062 13.703125 -21.65625 C 13.285156 -22.03125 12.664062 -22.207031 11.84375 -22.1875 C 10.988281 -22.164062 10.210938 -21.921875 9.515625 -21.453125 C 8.816406 -20.984375 8.179688 -20.40625 7.609375 -19.71875 C 7.046875 -19.039062 6.515625 -18.359375 6.015625 -17.671875 C 5.523438 -16.984375 5.0625 -16.410156 4.625 -15.953125 C 4.1875 -15.492188 3.753906 -15.265625 3.328125 -15.265625 C 3.054688 -15.265625 2.8125 -15.367188 2.59375 -15.578125 C 2.382812 -15.796875 2.28125 -16.050781 2.28125 -16.34375 L 2.28125 -18.1875 C 2.28125 -18.769531 2.285156 -19.34375 2.296875 -19.90625 C 2.304688 -20.46875 2.523438 -20.953125 2.953125 -21.359375 C 4.097656 -22.453125 5.503906 -23.171875 7.171875 -23.515625 C 8.847656 -23.867188 10.570312 -24.046875 12.34375 -24.046875 C 14.269531 -24.046875 15.945312 -23.75 17.375 -23.15625 C 18.8125 -22.5625 19.992188 -21.773438 20.921875 -20.796875 C 21.859375 -19.816406 22.554688 -18.734375 23.015625 -17.546875 C 23.472656 -16.359375 23.703125 -15.160156 23.703125 -13.953125 L 23.703125 -3.96875 C 23.703125 -3 23.785156 -2.207031 23.953125 -1.59375 C 24.117188 -0.976562 24.425781 -0.445312 24.875 0 L 16.640625 0 C 15.660156 0 15.078125 -0.484375 14.890625 -1.453125 C 14.847656 -1.742188 14.753906 -2.007812 14.609375 -2.25 C 14.460938 -2.5 14.265625 -2.625 14.015625 -2.625 C 13.660156 -2.625 13.304688 -2.46875 12.953125 -2.15625 C 12.609375 -1.84375 12.191406 -1.476562 11.703125 -1.0625 C 11.210938 -0.644531 10.578125 -0.28125 9.796875 0.03125 C 9.023438 0.34375 8.035156 0.5 6.828125 0.5 C 5.753906 0.5 4.757812 0.242188 3.84375 -0.265625 C 2.9375 -0.785156 2.207031 -1.472656 1.65625 -2.328125 C 1.113281 -3.191406 0.84375 -4.164062 0.84375 -5.25 Z M 13.546875 -15.125 C 12.828125 -15.125 12.101562 -14.847656 11.375 -14.296875 C 10.65625 -13.753906 10.054688 -12.984375 9.578125 -11.984375 C 9.109375 -10.984375 8.875 -9.789062 8.875 -8.40625 C 8.875 -7.625 8.96875 -6.878906 9.15625 -6.171875 C 9.351562 -5.460938 9.679688 -4.882812 10.140625 -4.4375 C 10.597656 -3.988281 11.242188 -3.765625 12.078125 -3.765625 C 12.992188 -3.765625 13.675781 -4.128906 14.125 -4.859375 C 14.570312 -5.585938 14.796875 -6.5 14.796875 -7.59375 C 14.796875 -8.644531 14.789062 -9.554688 14.78125 -10.328125 C 14.769531 -11.109375 14.765625 -12.015625 14.765625 -13.046875 C 14.765625 -13.804688 14.671875 -14.34375 14.484375 -14.65625 C 14.304688 -14.96875 13.992188 -15.125 13.546875 -15.125 Z M 13.546875 -15.125 "/></g></g><g style="fill:#d85c0c;fill-opacity:1;"><g transform="translate(61.149536, 36.838305)"><path style="stroke:none" d="M 11.59375 0 L 0.34375 0 C 0.789062 -0.445312 1.097656 -0.976562 1.265625 -1.59375 C 1.429688 -2.207031 1.515625 -3 1.515625 -3.96875 L 1.515625 -19.5625 C 1.515625 -20.53125 1.429688 -21.320312 1.265625 -21.9375 C 1.097656 -22.550781 0.789062 -23.082031 0.34375 -23.53125 L 8.578125 -23.53125 C 9.296875 -23.53125 9.78125 -23.28125 10.03125 -22.78125 C 10.289062 -22.28125 10.421875 -21.601562 10.421875 -20.75 L 10.421875 -20.171875 C 10.421875 -19.765625 10.441406 -19.53125 10.484375 -19.46875 C 10.535156 -19.40625 10.59375 -19.375 10.65625 -19.375 C 10.925781 -19.375 11.191406 -19.53125 11.453125 -19.84375 C 11.710938 -20.15625 12.015625 -20.546875 12.359375 -21.015625 C 12.703125 -21.484375 13.125 -21.945312 13.625 -22.40625 C 14.132812 -22.863281 14.773438 -23.25 15.546875 -23.5625 C 16.328125 -23.882812 17.285156 -24.046875 18.421875 -24.046875 C 19.660156 -24.046875 20.65625 -23.800781 21.40625 -23.3125 C 22.15625 -22.832031 22.726562 -22.191406 23.125 -21.390625 C 23.53125 -20.597656 23.804688 -19.742188 23.953125 -18.828125 C 24.097656 -17.910156 24.171875 -17.015625 24.171875 -16.140625 L 24.203125 -9.71875 L 24.203125 -3.96875 C 24.203125 -3 24.285156 -2.207031 24.453125 -1.59375 C 24.628906 -0.976562 24.941406 -0.445312 25.390625 0 L 14.125 0 C 14.570312 -0.445312 14.878906 -0.976562 15.046875 -1.59375 C 15.210938 -2.207031 15.296875 -3 15.296875 -3.96875 L 15.296875 -14.890625 C 15.296875 -15.679688 15.160156 -16.378906 14.890625 -16.984375 C 14.628906 -17.585938 14.125 -17.890625 13.375 -17.890625 C 12.863281 -17.890625 12.382812 -17.75 11.9375 -17.46875 C 11.488281 -17.1875 11.125 -16.703125 10.84375 -16.015625 C 10.5625 -15.335938 10.421875 -14.367188 10.421875 -13.109375 L 10.421875 -3.96875 C 10.421875 -3 10.503906 -2.207031 10.671875 -1.59375 C 10.835938 -0.976562 11.144531 -0.445312 11.59375 0 Z M 11.59375 0 "/></g></g><g style="fill:#d85c0c;fill-opacity:1;"><g transform="translate(86.705421, 36.838305)"><path style="stroke:none" d="M 7.4375 -4.4375 C 5.4375 -5.332031 3.835938 -6.5625 2.640625 -8.125 C 1.441406 -9.695312 0.84375 -11.570312 0.84375 -13.75 C 0.84375 -15.8125 1.363281 -17.609375 2.40625 -19.140625 C 3.445312 -20.679688 4.894531 -21.882812 6.75 -22.75 C 8.613281 -23.613281 10.789062 -24.046875 13.28125 -24.046875 C 14.0625 -24.046875 14.882812 -23.957031 15.75 -23.78125 C 16.613281 -23.613281 17.289062 -23.53125 17.78125 -23.53125 C 18.675781 -23.53125 19.421875 -23.65625 20.015625 -23.90625 C 20.617188 -24.15625 21.109375 -24.453125 21.484375 -24.796875 C 21.867188 -25.140625 22.1875 -25.488281 22.4375 -25.84375 C 22.695312 -26.207031 22.953125 -26.515625 23.203125 -26.765625 C 23.453125 -27.015625 23.742188 -27.140625 24.078125 -27.140625 C 24.523438 -27.140625 24.945312 -26.9375 25.34375 -26.53125 C 25.75 -26.125 26.078125 -25.640625 26.328125 -25.078125 C 26.578125 -24.523438 26.703125 -24.007812 26.703125 -23.53125 C 26.703125 -23.113281 26.476562 -22.769531 26.03125 -22.5 C 25.582031 -22.226562 25.066406 -22.09375 24.484375 -22.09375 C 23.804688 -22.09375 23.265625 -22.125 22.859375 -22.1875 C 22.460938 -22.257812 22.113281 -22.34375 21.8125 -22.4375 C 21.507812 -22.539062 21.179688 -22.632812 20.828125 -22.71875 C 20.484375 -22.8125 20.03125 -22.875 19.46875 -22.90625 C 21.4375 -22.09375 22.960938 -20.894531 24.046875 -19.3125 C 25.140625 -17.738281 25.6875 -15.882812 25.6875 -13.75 C 25.6875 -11.957031 25.289062 -10.335938 24.5 -8.890625 C 23.71875 -7.441406 22.601562 -6.257812 21.15625 -5.34375 C 19.71875 -4.425781 18.015625 -3.851562 16.046875 -3.625 C 15.679688 -3.582031 15.5 -3.382812 15.5 -3.03125 C 15.5 -2.664062 15.734375 -2.375 16.203125 -2.15625 C 16.671875 -1.945312 17.273438 -1.757812 18.015625 -1.59375 C 18.753906 -1.425781 19.546875 -1.222656 20.390625 -0.984375 C 21.234375 -0.753906 22.03125 -0.4375 22.78125 -0.03125 C 23.53125 0.375 24.140625 0.910156 24.609375 1.578125 C 25.078125 2.253906 25.3125 3.128906 25.3125 4.203125 C 25.3125 5.617188 24.828125 6.796875 23.859375 7.734375 C 22.898438 8.671875 21.625 9.378906 20.03125 9.859375 C 18.445312 10.347656 16.703125 10.59375 14.796875 10.59375 C 13.273438 10.59375 11.710938 10.421875 10.109375 10.078125 C 8.503906 9.742188 7.015625 9.242188 5.640625 8.578125 C 4.273438 7.921875 3.171875 7.125 2.328125 6.1875 C 1.492188 5.25 1.078125 4.171875 1.078125 2.953125 C 1.078125 2.597656 1.4375 2.113281 2.15625 1.5 C 2.875 0.882812 3.75 0.304688 4.78125 -0.234375 C 5.425781 -0.566406 6.085938 -0.875 6.765625 -1.15625 C 7.453125 -1.4375 8.125 -1.578125 8.78125 -1.578125 C 9.132812 -1.578125 9.484375 -1.445312 9.828125 -1.1875 C 10.179688 -0.9375 10.359375 -0.550781 10.359375 -0.03125 C 10.359375 0.320312 10.304688 0.640625 10.203125 0.921875 C 10.097656 1.203125 9.992188 1.5625 9.890625 2 C 9.796875 2.4375 9.75 3.101562 9.75 4 C 9.75 5.1875 10.078125 6.171875 10.734375 6.953125 C 11.398438 7.742188 12.328125 8.140625 13.515625 8.140625 C 14.703125 8.140625 15.648438 7.820312 16.359375 7.1875 C 17.066406 6.5625 17.421875 5.625 17.421875 4.375 C 17.421875 3.070312 17.175781 1.992188 16.6875 1.140625 C 16.207031 0.285156 15.519531 -0.429688 14.625 -1.015625 C 13.726562 -1.597656 12.675781 -2.148438 11.46875 -2.671875 C 10.257812 -3.203125 8.914062 -3.789062 7.4375 -4.4375 Z M 13.28125 -22.46875 C 12.5625 -22.46875 11.925781 -22.082031 11.375 -21.3125 C 10.832031 -20.550781 10.410156 -19.472656 10.109375 -18.078125 C 9.804688 -16.691406 9.65625 -15.070312 9.65625 -13.21875 C 9.65625 -11.375 9.804688 -9.753906 10.109375 -8.359375 C 10.410156 -6.972656 10.832031 -5.898438 11.375 -5.140625 C 11.925781 -4.378906 12.5625 -4 13.28125 -4 C 14 -4 14.625 -4.378906 15.15625 -5.140625 C 15.695312 -5.898438 16.117188 -6.972656 16.421875 -8.359375 C 16.722656 -9.753906 16.875 -11.375 16.875 -13.21875 C 16.875 -15.070312 16.722656 -16.691406 16.421875 -18.078125 C 16.117188 -19.472656 15.695312 -20.550781 15.15625 -21.3125 C 14.625 -22.082031 14 -22.46875 13.28125 -22.46875 Z M 13.28125 -22.46875 "/></g></g><g style="fill:#d85c0c;fill-opacity:1;"><g transform="translate(113.404596, 36.838305)"><path style="stroke:none" d="M 0.84375 -11.125 C 0.84375 -13.59375 1.300781 -15.796875 2.21875 -17.734375 C 3.132812 -19.671875 4.488281 -21.207031 6.28125 -22.34375 C 8.082031 -23.476562 10.289062 -24.046875 12.90625 -24.046875 C 14.90625 -24.046875 16.601562 -23.617188 18 -22.765625 C 19.40625 -21.910156 20.472656 -20.800781 21.203125 -19.4375 C 21.929688 -18.070312 22.296875 -16.613281 22.296875 -15.0625 C 22.296875 -13.9375 22.03125 -13.066406 21.5 -12.453125 C 20.976562 -11.835938 20.257812 -11.398438 19.34375 -11.140625 C 18.4375 -10.890625 17.410156 -10.738281 16.265625 -10.6875 C 15.128906 -10.644531 13.9375 -10.648438 12.6875 -10.703125 C 11.445312 -10.765625 10.234375 -10.796875 9.046875 -10.796875 C 8.890625 -10.796875 8.71875 -10.773438 8.53125 -10.734375 C 8.351562 -10.703125 8.265625 -10.539062 8.265625 -10.25 C 8.265625 -9.957031 8.5625 -9.550781 9.15625 -9.03125 C 9.75 -8.519531 10.515625 -7.992188 11.453125 -7.453125 C 12.398438 -6.921875 13.410156 -6.472656 14.484375 -6.109375 C 15.566406 -5.753906 16.585938 -5.578125 17.546875 -5.578125 C 18.359375 -5.578125 19.007812 -5.664062 19.5 -5.84375 C 19.988281 -6.03125 20.378906 -6.234375 20.671875 -6.453125 C 20.960938 -6.679688 21.203125 -6.882812 21.390625 -7.0625 C 21.585938 -7.238281 21.765625 -7.328125 21.921875 -7.328125 C 22.035156 -7.328125 22.15625 -7.28125 22.28125 -7.1875 C 22.40625 -7.101562 22.46875 -6.914062 22.46875 -6.625 C 22.46875 -6 22.28125 -5.273438 21.90625 -4.453125 C 21.539062 -3.640625 20.976562 -2.851562 20.21875 -2.09375 C 19.46875 -1.34375 18.503906 -0.722656 17.328125 -0.234375 C 16.148438 0.253906 14.753906 0.5 13.140625 0.5 C 11.523438 0.5 9.976562 0.207031 8.5 -0.375 C 7.019531 -0.957031 5.707031 -1.773438 4.5625 -2.828125 C 3.425781 -3.878906 2.519531 -5.109375 1.84375 -6.515625 C 1.175781 -7.929688 0.84375 -9.46875 0.84375 -11.125 Z M 4.609375 -17.28125 C 4.609375 -16.5 4.734375 -15.734375 4.984375 -14.984375 C 5.242188 -14.234375 5.660156 -13.613281 6.234375 -13.125 C 6.804688 -12.644531 7.539062 -12.40625 8.4375 -12.40625 C 9.21875 -12.40625 10.007812 -12.429688 10.8125 -12.484375 C 11.625 -12.546875 12.375 -12.660156 13.0625 -12.828125 C 13.75 -12.992188 14.296875 -13.242188 14.703125 -13.578125 C 15.117188 -13.921875 15.328125 -14.367188 15.328125 -14.921875 C 15.328125 -15.796875 15.109375 -16.570312 14.671875 -17.25 C 14.234375 -17.925781 13.660156 -18.5 12.953125 -18.96875 C 12.253906 -19.4375 11.507812 -19.785156 10.71875 -20.015625 C 9.9375 -20.253906 9.1875 -20.375 8.46875 -20.375 C 7.84375 -20.375 7.234375 -20.25 6.640625 -20 C 6.046875 -19.757812 5.554688 -19.410156 5.171875 -18.953125 C 4.796875 -18.492188 4.609375 -17.9375 4.609375 -17.28125 Z M 4.609375 -17.28125 "/></g></g><g style="fill:#d85c0c;fill-opacity:1;"><g transform="translate(136.5394, 36.838305)"><path style="stroke:none" d="M 1.515625 -29.65625 C 1.515625 -30.625 1.429688 -31.414062 1.265625 -32.03125 C 1.097656 -32.644531 0.789062 -33.175781 0.34375 -33.625 L 14.796875 -33.625 C 16.972656 -33.625 18.757812 -33.222656 20.15625 -32.421875 C 21.5625 -31.628906 22.601562 -30.597656 23.28125 -29.328125 C 23.96875 -28.066406 24.3125 -26.71875 24.3125 -25.28125 C 24.3125 -24.34375 24.113281 -23.375 23.71875 -22.375 C 23.332031 -21.375 22.742188 -20.453125 21.953125 -19.609375 C 21.171875 -18.773438 20.195312 -18.097656 19.03125 -17.578125 C 17.863281 -17.066406 16.507812 -16.8125 14.96875 -16.8125 C 13.726562 -16.8125 12.519531 -16.929688 11.34375 -17.171875 C 10.164062 -17.421875 9.09375 -17.664062 8.125 -17.90625 C 7.164062 -18.144531 6.375 -18.265625 5.75 -18.265625 C 5.519531 -18.265625 5.332031 -18.21875 5.1875 -18.125 C 5.039062 -18.03125 4.96875 -17.894531 4.96875 -17.71875 C 4.96875 -17.382812 5.296875 -17.097656 5.953125 -16.859375 C 6.617188 -16.628906 7.46875 -16.441406 8.5 -16.296875 C 9.53125 -16.148438 10.597656 -16.023438 11.703125 -15.921875 C 12.816406 -15.816406 13.828125 -15.722656 14.734375 -15.640625 C 18.160156 -15.296875 20.664062 -14.398438 22.25 -12.953125 C 23.84375 -11.515625 24.640625 -9.640625 24.640625 -7.328125 C 24.640625 -6.003906 24.273438 -4.785156 23.546875 -3.671875 C 22.828125 -2.566406 21.847656 -1.675781 20.609375 -1 C 19.378906 -0.332031 17.988281 0 16.4375 0 L 0.34375 0 C 0.789062 -0.445312 1.097656 -0.976562 1.265625 -1.59375 C 1.429688 -2.207031 1.515625 -3 1.515625 -3.96875 Z M 12.34375 -26.90625 C 11.195312 -26.90625 10.078125 -26.785156 8.984375 -26.546875 C 7.898438 -26.304688 6.929688 -25.96875 6.078125 -25.53125 C 5.234375 -25.09375 4.554688 -24.585938 4.046875 -24.015625 C 3.546875 -23.453125 3.296875 -22.832031 3.296875 -22.15625 C 3.296875 -21.394531 3.640625 -20.804688 4.328125 -20.390625 C 5.023438 -19.972656 5.835938 -19.765625 6.765625 -19.765625 C 8.691406 -19.765625 10.332031 -20.007812 11.6875 -20.5 C 13.039062 -21 14.078125 -21.609375 14.796875 -22.328125 C 15.515625 -23.046875 15.875 -23.738281 15.875 -24.40625 C 15.875 -25.082031 15.570312 -25.664062 14.96875 -26.15625 C 14.363281 -26.65625 13.488281 -26.90625 12.34375 -26.90625 Z M 3.734375 -15.640625 C 3.578125 -15.640625 3.46875 -15.597656 3.40625 -15.515625 C 3.351562 -15.441406 3.328125 -15.359375 3.328125 -15.265625 C 3.328125 -15.066406 3.460938 -14.773438 3.734375 -14.390625 C 4.003906 -14.003906 4.328125 -13.597656 4.703125 -13.171875 C 5.085938 -12.753906 5.425781 -12.363281 5.71875 -12 C 6.34375 -11.28125 7.039062 -10.5 7.8125 -9.65625 C 8.59375 -8.820312 9.457031 -8.109375 10.40625 -7.515625 C 11.363281 -6.921875 12.378906 -6.625 13.453125 -6.625 C 14.117188 -6.625 14.648438 -6.75 15.046875 -7 C 15.441406 -7.257812 15.722656 -7.570312 15.890625 -7.9375 C 16.054688 -8.3125 16.140625 -8.671875 16.140625 -9.015625 C 16.140625 -9.835938 15.65625 -10.675781 14.6875 -11.53125 C 13.726562 -12.382812 12.003906 -13.191406 9.515625 -13.953125 C 7.722656 -14.515625 6.414062 -14.9375 5.59375 -15.21875 C 4.78125 -15.5 4.160156 -15.640625 3.734375 -15.640625 Z M 3.734375 -15.640625 "/></g></g><g style="fill:#d85c0c;fill-opacity:1;"><g transform="translate(161.859911, 36.838305)"><path style="stroke:none" d="M 0.84375 -11.125 C 0.84375 -13.59375 1.300781 -15.796875 2.21875 -17.734375 C 3.132812 -19.671875 4.488281 -21.207031 6.28125 -22.34375 C 8.082031 -23.476562 10.289062 -24.046875 12.90625 -24.046875 C 14.90625 -24.046875 16.601562 -23.617188 18 -22.765625 C 19.40625 -21.910156 20.472656 -20.800781 21.203125 -19.4375 C 21.929688 -18.070312 22.296875 -16.613281 22.296875 -15.0625 C 22.296875 -13.9375 22.03125 -13.066406 21.5 -12.453125 C 20.976562 -11.835938 20.257812 -11.398438 19.34375 -11.140625 C 18.4375 -10.890625 17.410156 -10.738281 16.265625 -10.6875 C 15.128906 -10.644531 13.9375 -10.648438 12.6875 -10.703125 C 11.445312 -10.765625 10.234375 -10.796875 9.046875 -10.796875 C 8.890625 -10.796875 8.71875 -10.773438 8.53125 -10.734375 C 8.351562 -10.703125 8.265625 -10.539062 8.265625 -10.25 C 8.265625 -9.957031 8.5625 -9.550781 9.15625 -9.03125 C 9.75 -8.519531 10.515625 -7.992188 11.453125 -7.453125 C 12.398438 -6.921875 13.410156 -6.472656 14.484375 -6.109375 C 15.566406 -5.753906 16.585938 -5.578125 17.546875 -5.578125 C 18.359375 -5.578125 19.007812 -5.664062 19.5 -5.84375 C 19.988281 -6.03125 20.378906 -6.234375 20.671875 -6.453125 C 20.960938 -6.679688 21.203125 -6.882812 21.390625 -7.0625 C 21.585938 -7.238281 21.765625 -7.328125 21.921875 -7.328125 C 22.035156 -7.328125 22.15625 -7.28125 22.28125 -7.1875 C 22.40625 -7.101562 22.46875 -6.914062 22.46875 -6.625 C 22.46875 -6 22.28125 -5.273438 21.90625 -4.453125 C 21.539062 -3.640625 20.976562 -2.851562 20.21875 -2.09375 C 19.46875 -1.34375 18.503906 -0.722656 17.328125 -0.234375 C 16.148438 0.253906 14.753906 0.5 13.140625 0.5 C 11.523438 0.5 9.976562 0.207031 8.5 -0.375 C 7.019531 -0.957031 5.707031 -1.773438 4.5625 -2.828125 C 3.425781 -3.878906 2.519531 -5.109375 1.84375 -6.515625 C 1.175781 -7.929688 0.84375 -9.46875 0.84375 -11.125 Z M 4.609375 -17.28125 C 4.609375 -16.5 4.734375 -15.734375 4.984375 -14.984375 C 5.242188 -14.234375 5.660156 -13.613281 6.234375 -13.125 C 6.804688 -12.644531 7.539062 -12.40625 8.4375 -12.40625 C 9.21875 -12.40625 10.007812 -12.429688 10.8125 -12.484375 C 11.625 -12.546875 12.375 -12.660156 13.0625 -12.828125 C 13.75 -12.992188 14.296875 -13.242188 14.703125 -13.578125 C 15.117188 -13.921875 15.328125 -14.367188 15.328125 -14.921875 C 15.328125 -15.796875 15.109375 -16.570312 14.671875 -17.25 C 14.234375 -17.925781 13.660156 -18.5 12.953125 -18.96875 C 12.253906 -19.4375 11.507812 -19.785156 10.71875 -20.015625 C 9.9375 -20.253906 9.1875 -20.375 8.46875 -20.375 C 7.84375 -20.375 7.234375 -20.25 6.640625 -20 C 6.046875 -19.757812 5.554688 -19.410156 5.171875 -18.953125 C 4.796875 -18.492188 4.609375 -17.9375 4.609375 -17.28125 Z M 4.609375 -17.28125 "/></g></g><g style="fill:#d85c0c;fill-opacity:1;"><g transform="translate(184.994716, 36.838305)"><path style="stroke:none" d="M 0.84375 -5.25 C 0.84375 -7.039062 1.203125 -8.613281 1.921875 -9.96875 C 2.640625 -11.320312 3.609375 -12.484375 4.828125 -13.453125 C 6.046875 -14.429688 7.410156 -15.234375 8.921875 -15.859375 C 10.441406 -16.492188 11.984375 -16.976562 13.546875 -17.3125 C 14.046875 -17.425781 14.375 -17.628906 14.53125 -17.921875 C 14.6875 -18.210938 14.765625 -18.503906 14.765625 -18.796875 C 14.765625 -19.285156 14.691406 -19.789062 14.546875 -20.3125 C 14.398438 -20.84375 14.117188 -21.289062 13.703125 -21.65625 C 13.285156 -22.03125 12.664062 -22.207031 11.84375 -22.1875 C 10.988281 -22.164062 10.210938 -21.921875 9.515625 -21.453125 C 8.816406 -20.984375 8.179688 -20.40625 7.609375 -19.71875 C 7.046875 -19.039062 6.515625 -18.359375 6.015625 -17.671875 C 5.523438 -16.984375 5.0625 -16.410156 4.625 -15.953125 C 4.1875 -15.492188 3.753906 -15.265625 3.328125 -15.265625 C 3.054688 -15.265625 2.8125 -15.367188 2.59375 -15.578125 C 2.382812 -15.796875 2.28125 -16.050781 2.28125 -16.34375 L 2.28125 -18.1875 C 2.28125 -18.769531 2.285156 -19.34375 2.296875 -19.90625 C 2.304688 -20.46875 2.523438 -20.953125 2.953125 -21.359375 C 4.097656 -22.453125 5.503906 -23.171875 7.171875 -23.515625 C 8.847656 -23.867188 10.570312 -24.046875 12.34375 -24.046875 C 14.269531 -24.046875 15.945312 -23.75 17.375 -23.15625 C 18.8125 -22.5625 19.992188 -21.773438 20.921875 -20.796875 C 21.859375 -19.816406 22.554688 -18.734375 23.015625 -17.546875 C 23.472656 -16.359375 23.703125 -15.160156 23.703125 -13.953125 L 23.703125 -3.96875 C 23.703125 -3 23.785156 -2.207031 23.953125 -1.59375 C 24.117188 -0.976562 24.425781 -0.445312 24.875 0 L 16.640625 0 C 15.660156 0 15.078125 -0.484375 14.890625 -1.453125 C 14.847656 -1.742188 14.753906 -2.007812 14.609375 -2.25 C 14.460938 -2.5 14.265625 -2.625 14.015625 -2.625 C 13.660156 -2.625 13.304688 -2.46875 12.953125 -2.15625 C 12.609375 -1.84375 12.191406 -1.476562 11.703125 -1.0625 C 11.210938 -0.644531 10.578125 -0.28125 9.796875 0.03125 C 9.023438 0.34375 8.035156 0.5 6.828125 0.5 C 5.753906 0.5 4.757812 0.242188 3.84375 -0.265625 C 2.9375 -0.785156 2.207031 -1.472656 1.65625 -2.328125 C 1.113281 -3.191406 0.84375 -4.164062 0.84375 -5.25 Z M 13.546875 -15.125 C 12.828125 -15.125 12.101562 -14.847656 11.375 -14.296875 C 10.65625 -13.753906 10.054688 -12.984375 9.578125 -11.984375 C 9.109375 -10.984375 8.875 -9.789062 8.875 -8.40625 C 8.875 -7.625 8.96875 -6.878906 9.15625 -6.171875 C 9.351562 -5.460938 9.679688 -4.882812 10.140625 -4.4375 C 10.597656 -3.988281 11.242188 -3.765625 12.078125 -3.765625 C 12.992188 -3.765625 13.675781 -4.128906 14.125 -4.859375 C 14.570312 -5.585938 14.796875 -6.5 14.796875 -7.59375 C 14.796875 -8.644531 14.789062 -9.554688 14.78125 -10.328125 C 14.769531 -11.109375 14.765625 -12.015625 14.765625 -13.046875 C 14.765625 -13.804688 14.671875 -14.34375 14.484375 -14.65625 C 14.304688 -14.96875 13.992188 -15.125 13.546875 -15.125 Z M 13.546875 -15.125 "/></g></g><g style="fill:#d85c0c;fill-opacity:1;"><g transform="translate(210.046196, 36.838305)"><path style="stroke:none" d="M 11.9375 0 L 0.671875 0 C 1.117188 -0.445312 1.425781 -0.976562 1.59375 -1.59375 C 1.757812 -2.207031 1.84375 -3 1.84375 -3.96875 L 1.84375 -19.5625 C 1.84375 -20.53125 1.757812 -21.320312 1.59375 -21.9375 C 1.425781 -22.550781 1.117188 -23.082031 0.671875 -23.53125 L 8.90625 -23.53125 C 9.625 -23.53125 10.113281 -23.28125 10.375 -22.78125 C 10.632812 -22.28125 10.765625 -21.601562 10.765625 -20.75 L 10.765625 -20.171875 C 10.765625 -19.765625 10.785156 -19.53125 10.828125 -19.46875 C 10.867188 -19.40625 10.925781 -19.375 11 -19.375 C 11.269531 -19.375 11.53125 -19.53125 11.78125 -19.84375 C 12.039062 -20.15625 12.34375 -20.546875 12.6875 -21.015625 C 13.039062 -21.484375 13.46875 -21.945312 13.96875 -22.40625 C 14.476562 -22.863281 15.117188 -23.25 15.890625 -23.5625 C 16.660156 -23.882812 17.617188 -24.046875 18.765625 -24.046875 C 20.398438 -24.046875 21.625 -23.625 22.4375 -22.78125 C 23.257812 -21.9375 23.816406 -20.921875 24.109375 -19.734375 C 24.222656 -19.515625 24.347656 -19.398438 24.484375 -19.390625 C 24.617188 -19.378906 24.707031 -19.375 24.75 -19.375 C 25.019531 -19.375 25.28125 -19.53125 25.53125 -19.84375 C 25.789062 -20.15625 26.09375 -20.546875 26.4375 -21.015625 C 26.789062 -21.484375 27.21875 -21.945312 27.71875 -22.40625 C 28.226562 -22.863281 28.867188 -23.25 29.640625 -23.5625 C 30.410156 -23.882812 31.367188 -24.046875 32.515625 -24.046875 C 33.742188 -24.046875 34.734375 -23.800781 35.484375 -23.3125 C 36.242188 -22.832031 36.820312 -22.191406 37.21875 -21.390625 C 37.625 -20.597656 37.898438 -19.742188 38.046875 -18.828125 C 38.191406 -17.910156 38.265625 -17.015625 38.265625 -16.140625 L 38.296875 -9.71875 L 38.296875 -3.96875 C 38.296875 -3 38.378906 -2.207031 38.546875 -1.59375 C 38.710938 -0.976562 39.019531 -0.445312 39.46875 0 L 28.21875 0 C 28.664062 -0.445312 28.972656 -0.976562 29.140625 -1.59375 C 29.304688 -2.207031 29.390625 -3 29.390625 -3.96875 L 29.390625 -14.890625 C 29.390625 -15.679688 29.253906 -16.378906 28.984375 -16.984375 C 28.710938 -17.585938 28.207031 -17.890625 27.46875 -17.890625 C 26.75 -17.890625 26.097656 -17.597656 25.515625 -17.015625 C 24.929688 -16.429688 24.597656 -15.332031 24.515625 -13.71875 L 24.546875 -9.71875 L 24.546875 -3.96875 C 24.546875 -3 24.628906 -2.207031 24.796875 -1.59375 C 24.960938 -0.976562 25.269531 -0.445312 25.71875 0 L 14.453125 0 C 14.898438 -0.445312 15.207031 -0.976562 15.375 -1.59375 C 15.550781 -2.207031 15.640625 -3 15.640625 -3.96875 L 15.640625 -14.890625 C 15.640625 -15.679688 15.503906 -16.378906 15.234375 -16.984375 C 14.960938 -17.585938 14.457031 -17.890625 13.71875 -17.890625 C 13.207031 -17.890625 12.722656 -17.75 12.265625 -17.46875 C 11.816406 -17.1875 11.453125 -16.703125 11.171875 -16.015625 C 10.898438 -15.335938 10.765625 -14.367188 10.765625 -13.109375 L 10.765625 -3.96875 C 10.765625 -3 10.847656 -2.207031 11.015625 -1.59375 C 11.179688 -0.976562 11.488281 -0.445312 11.9375 0 Z M 11.9375 0 "/></g></g><g style="fill:#d85c0c;fill-opacity:1;"><g transform="translate(249.707726, 36.838305)"><path style="stroke:none" d=""/></g></g><g style="fill:#d85c0c;fill-opacity:1;"><g transform="translate(0.678062, 82.559846)"><path style="stroke:none" d="M 14.453125 0.5 C 12.578125 0.5 10.8125 0.144531 9.15625 -0.5625 C 7.507812 -1.28125 6.0625 -2.359375 4.8125 -3.796875 C 3.570312 -5.234375 2.597656 -7.035156 1.890625 -9.203125 C 1.191406 -11.378906 0.84375 -13.914062 0.84375 -16.8125 C 0.84375 -18.46875 1 -20.125 1.3125 -21.78125 C 1.625 -23.445312 2.101562 -25.019531 2.75 -26.5 C 3.40625 -27.976562 4.210938 -29.285156 5.171875 -30.421875 C 6.140625 -31.566406 7.28125 -32.46875 8.59375 -33.125 C 9.90625 -33.789062 11.390625 -34.125 13.046875 -34.125 C 13.921875 -34.125 14.753906 -34.007812 15.546875 -33.78125 C 16.347656 -33.5625 17.164062 -33.335938 18 -33.109375 C 18.84375 -32.890625 19.769531 -32.78125 20.78125 -32.78125 C 21.5625 -32.78125 22.179688 -32.890625 22.640625 -33.109375 C 23.097656 -33.335938 23.488281 -33.5625 23.8125 -33.78125 C 24.144531 -34.007812 24.476562 -34.125 24.8125 -34.125 C 25.257812 -34.125 25.515625 -33.867188 25.578125 -33.359375 C 25.648438 -32.859375 25.601562 -32.234375 25.4375 -31.484375 C 25.269531 -30.734375 25.03125 -29.988281 24.71875 -29.25 C 24.5625 -28.894531 24.359375 -28.492188 24.109375 -28.046875 C 23.859375 -27.597656 23.566406 -27.148438 23.234375 -26.703125 C 22.878906 -26.222656 22.441406 -25.71875 21.921875 -25.1875 C 21.410156 -24.664062 20.910156 -24.113281 20.421875 -23.53125 C 19.941406 -22.945312 19.539062 -22.351562 19.21875 -21.75 C 18.894531 -21.144531 18.734375 -20.539062 18.734375 -19.9375 C 18.734375 -19.375 18.910156 -18.882812 19.265625 -18.46875 C 19.628906 -18.0625 20.097656 -17.859375 20.671875 -17.859375 C 21.035156 -17.859375 21.25 -17.910156 21.3125 -18.015625 C 21.382812 -18.128906 21.507812 -18.1875 21.6875 -18.1875 C 21.957031 -18.1875 22.144531 -17.960938 22.25 -17.515625 C 22.363281 -17.066406 22.421875 -16.675781 22.421875 -16.34375 C 22.421875 -15.507812 22.175781 -14.722656 21.6875 -13.984375 C 21.195312 -13.242188 20.539062 -12.644531 19.71875 -12.1875 C 18.90625 -11.726562 18.023438 -11.5 17.078125 -11.5 C 16.179688 -11.5 15.351562 -11.71875 14.59375 -12.15625 C 13.832031 -12.59375 13.222656 -13.175781 12.765625 -13.90625 C 12.304688 -14.632812 12.078125 -15.445312 12.078125 -16.34375 C 12.078125 -17.351562 12.3125 -18.226562 12.78125 -18.96875 C 13.25 -19.707031 13.820312 -20.34375 14.5 -20.875 C 15.1875 -21.414062 15.878906 -21.875 16.578125 -22.25 C 17.273438 -22.632812 17.859375 -22.976562 18.328125 -23.28125 C 18.796875 -23.582031 19.03125 -23.867188 19.03125 -24.140625 C 19.03125 -24.566406 18.71875 -24.835938 18.09375 -24.953125 C 16.945312 -25.128906 15.925781 -25.429688 15.03125 -25.859375 C 14.132812 -26.285156 13.289062 -26.726562 12.5 -27.1875 C 11.71875 -27.644531 10.921875 -28.035156 10.109375 -28.359375 C 9.304688 -28.679688 8.425781 -28.84375 7.46875 -28.84375 C 6.90625 -28.84375 6.441406 -28.691406 6.078125 -28.390625 C 5.722656 -28.085938 5.441406 -27.710938 5.234375 -27.265625 C 5.035156 -26.816406 4.894531 -26.367188 4.8125 -25.921875 C 4.738281 -25.472656 4.703125 -25.09375 4.703125 -24.78125 C 4.703125 -23.394531 4.875 -21.910156 5.21875 -20.328125 C 5.570312 -18.742188 6.082031 -17.1875 6.75 -15.65625 C 7.425781 -14.132812 8.265625 -12.742188 9.265625 -11.484375 C 10.265625 -10.234375 11.414062 -9.234375 12.71875 -8.484375 C 14.03125 -7.734375 15.492188 -7.359375 17.109375 -7.359375 C 18.296875 -7.359375 19.269531 -7.523438 20.03125 -7.859375 C 20.800781 -8.203125 21.425781 -8.617188 21.90625 -9.109375 C 22.382812 -9.609375 22.773438 -10.101562 23.078125 -10.59375 C 23.378906 -11.082031 23.660156 -11.492188 23.921875 -11.828125 C 24.179688 -12.171875 24.476562 -12.34375 24.8125 -12.34375 C 25.019531 -12.34375 25.210938 -12.234375 25.390625 -12.015625 C 25.566406 -11.804688 25.65625 -11.3125 25.65625 -10.53125 C 25.65625 -9.445312 25.40625 -8.265625 24.90625 -6.984375 C 24.414062 -5.710938 23.691406 -4.507812 22.734375 -3.375 C 21.785156 -2.25 20.617188 -1.320312 19.234375 -0.59375 C 17.847656 0.132812 16.253906 0.5 14.453125 0.5 Z M 14.453125 0.5 "/></g></g><g style="fill:#d85c0c;fill-opacity:1;"><g transform="translate(27.007334, 82.559846)"><path style="stroke:none" d="M 4.265625 -2.953125 C 3.097656 -4.140625 2.226562 -5.476562 1.65625 -6.96875 C 1.09375 -8.46875 0.820312 -10.003906 0.84375 -11.578125 C 0.863281 -13.160156 1.179688 -14.707031 1.796875 -16.21875 C 2.410156 -17.738281 3.328125 -19.101562 4.546875 -20.3125 C 5.773438 -21.539062 7.148438 -22.460938 8.671875 -23.078125 C 10.203125 -23.703125 11.75 -24.015625 13.3125 -24.015625 C 14.84375 -24.015625 16.328125 -23.726562 17.765625 -23.15625 C 19.210938 -22.582031 20.507812 -21.710938 21.65625 -20.546875 C 22.820312 -19.378906 23.691406 -18.050781 24.265625 -16.5625 C 24.835938 -15.070312 25.109375 -13.535156 25.078125 -11.953125 C 25.054688 -10.367188 24.738281 -8.820312 24.125 -7.3125 C 23.507812 -5.800781 22.597656 -4.441406 21.390625 -3.234375 C 20.148438 -1.992188 18.769531 -1.0625 17.25 -0.4375 C 15.726562 0.1875 14.179688 0.5 12.609375 0.5 C 11.085938 0.5 9.601562 0.21875 8.15625 -0.34375 C 6.707031 -0.914062 5.410156 -1.785156 4.265625 -2.953125 Z M 11.328125 -22.21875 C 10.585938 -22.113281 9.988281 -21.539062 9.53125 -20.5 C 9.070312 -19.457031 8.789062 -18.109375 8.6875 -16.453125 C 8.59375 -14.804688 8.691406 -13 8.984375 -11.03125 C 9.296875 -9.082031 9.75 -7.335938 10.34375 -5.796875 C 10.9375 -4.265625 11.609375 -3.070312 12.359375 -2.21875 C 13.109375 -1.363281 13.84375 -0.992188 14.5625 -1.109375 C 15.28125 -1.222656 15.863281 -1.796875 16.3125 -2.828125 C 16.757812 -3.859375 17.035156 -5.203125 17.140625 -6.859375 C 17.253906 -8.515625 17.164062 -10.332031 16.875 -12.3125 C 16.582031 -14.257812 16.140625 -16 15.546875 -17.53125 C 14.953125 -19.070312 14.285156 -20.265625 13.546875 -21.109375 C 12.804688 -21.960938 12.066406 -22.332031 11.328125 -22.21875 Z M 11.328125 -22.21875 "/></g></g><g style="fill:#d85c0c;fill-opacity:1;"><g transform="translate(52.933097, 82.559846)"><path style="stroke:none" d="M 11.59375 0 L 0.34375 0 C 0.789062 -0.445312 1.097656 -0.976562 1.265625 -1.59375 C 1.429688 -2.207031 1.515625 -3 1.515625 -3.96875 L 1.515625 -19.5625 C 1.515625 -20.53125 1.429688 -21.320312 1.265625 -21.9375 C 1.097656 -22.550781 0.789062 -23.082031 0.34375 -23.53125 L 8.578125 -23.53125 C 9.296875 -23.53125 9.78125 -23.28125 10.03125 -22.78125 C 10.289062 -22.28125 10.421875 -21.601562 10.421875 -20.75 L 10.421875 -20.171875 C 10.421875 -19.765625 10.441406 -19.53125 10.484375 -19.46875 C 10.535156 -19.40625 10.59375 -19.375 10.65625 -19.375 C 10.925781 -19.375 11.191406 -19.53125 11.453125 -19.84375 C 11.710938 -20.15625 12.015625 -20.546875 12.359375 -21.015625 C 12.703125 -21.484375 13.125 -21.945312 13.625 -22.40625 C 14.132812 -22.863281 14.773438 -23.25 15.546875 -23.5625 C 16.328125 -23.882812 17.285156 -24.046875 18.421875 -24.046875 C 19.660156 -24.046875 20.65625 -23.800781 21.40625 -23.3125 C 22.15625 -22.832031 22.726562 -22.191406 23.125 -21.390625 C 23.53125 -20.597656 23.804688 -19.742188 23.953125 -18.828125 C 24.097656 -17.910156 24.171875 -17.015625 24.171875 -16.140625 L 24.203125 -9.71875 L 24.203125 -3.96875 C 24.203125 -3 24.285156 -2.207031 24.453125 -1.59375 C 24.628906 -0.976562 24.941406 -0.445312 25.390625 0 L 14.125 0 C 14.570312 -0.445312 14.878906 -0.976562 15.046875 -1.59375 C 15.210938 -2.207031 15.296875 -3 15.296875 -3.96875 L 15.296875 -14.890625 C 15.296875 -15.679688 15.160156 -16.378906 14.890625 -16.984375 C 14.628906 -17.585938 14.125 -17.890625 13.375 -17.890625 C 12.863281 -17.890625 12.382812 -17.75 11.9375 -17.46875 C 11.488281 -17.1875 11.125 -16.703125 10.84375 -16.015625 C 10.5625 -15.335938 10.421875 -14.367188 10.421875 -13.109375 L 10.421875 -3.96875 C 10.421875 -3 10.503906 -2.207031 10.671875 -1.59375 C 10.835938 -0.976562 11.144531 -0.445312 11.59375 0 Z M 11.59375 0 "/></g></g><g style="fill:#d85c0c;fill-opacity:1;"><g transform="translate(78.488982, 82.559846)"><path style="stroke:none" d="M 0.5 -16.8125 C 0.5 -18.226562 0.816406 -19.398438 1.453125 -20.328125 C 2.097656 -21.253906 2.953125 -21.984375 4.015625 -22.515625 C 5.078125 -23.054688 6.242188 -23.445312 7.515625 -23.6875 C 8.785156 -23.925781 10.054688 -24.046875 11.328125 -24.046875 C 12.804688 -24.046875 14.195312 -23.925781 15.5 -23.6875 C 16.800781 -23.445312 17.945312 -23.128906 18.9375 -22.734375 C 19.9375 -22.347656 20.71875 -21.921875 21.28125 -21.453125 C 21.84375 -20.984375 22.125 -20.5 22.125 -20 C 22.125 -19.257812 21.945312 -18.535156 21.59375 -17.828125 C 21.25 -17.128906 20.832031 -16.554688 20.34375 -16.109375 C 19.851562 -15.660156 19.40625 -15.4375 19 -15.4375 C 18.101562 -15.4375 17.25 -15.660156 16.4375 -16.109375 C 15.632812 -16.554688 14.851562 -17.109375 14.09375 -17.765625 C 13.332031 -18.429688 12.570312 -19.085938 11.8125 -19.734375 C 11.0625 -20.390625 10.300781 -20.941406 9.53125 -21.390625 C 8.757812 -21.835938 7.945312 -22.0625 7.09375 -22.0625 C 6.707031 -22.0625 6.300781 -21.984375 5.875 -21.828125 C 5.457031 -21.671875 5.109375 -21.421875 4.828125 -21.078125 C 4.546875 -20.742188 4.40625 -20.296875 4.40625 -19.734375 C 4.40625 -19.203125 4.628906 -18.753906 5.078125 -18.390625 C 5.523438 -18.035156 6.132812 -17.742188 6.90625 -17.515625 C 7.675781 -17.296875 8.535156 -17.09375 9.484375 -16.90625 C 10.960938 -16.644531 12.445312 -16.316406 13.9375 -15.921875 C 15.425781 -15.523438 16.78125 -14.988281 18 -14.3125 C 19.226562 -13.644531 20.210938 -12.765625 20.953125 -11.671875 C 21.691406 -10.585938 22.0625 -9.242188 22.0625 -7.640625 C 22.0625 -6.085938 21.71875 -4.785156 21.03125 -3.734375 C 20.34375 -2.679688 19.472656 -1.84375 18.421875 -1.21875 C 17.367188 -0.601562 16.265625 -0.164062 15.109375 0.09375 C 13.953125 0.363281 12.90625 0.5 11.96875 0.5 C 10.820312 0.5 9.59375 0.421875 8.28125 0.265625 C 6.976562 0.109375 5.75 -0.0976562 4.59375 -0.359375 C 3.4375 -0.628906 2.492188 -0.953125 1.765625 -1.328125 C 1.035156 -1.703125 0.671875 -2.097656 0.671875 -2.515625 C 0.671875 -2.878906 0.769531 -3.398438 0.96875 -4.078125 C 1.175781 -4.765625 1.441406 -5.472656 1.765625 -6.203125 C 2.085938 -6.929688 2.4375 -7.546875 2.8125 -8.046875 C 3.195312 -8.554688 3.5625 -8.8125 3.90625 -8.8125 C 4.414062 -8.8125 5.019531 -8.585938 5.71875 -8.140625 C 6.414062 -7.691406 7.226562 -7.175781 8.15625 -6.59375 C 9.082031 -6.007812 10.148438 -5.492188 11.359375 -5.046875 C 12.578125 -4.597656 13.957031 -4.375 15.5 -4.375 C 16.28125 -4.375 17.03125 -4.503906 17.75 -4.765625 C 18.46875 -5.035156 19.0625 -5.40625 19.53125 -5.875 C 20 -6.351562 20.234375 -6.882812 20.234375 -7.46875 C 20.234375 -7.863281 20.109375 -8.132812 19.859375 -8.28125 C 19.617188 -8.425781 19.273438 -8.5 18.828125 -8.5 C 18.203125 -8.5 17.398438 -8.425781 16.421875 -8.28125 C 15.453125 -8.132812 14.328125 -8.0625 13.046875 -8.0625 C 11.679688 -8.0625 10.269531 -8.207031 8.8125 -8.5 C 7.351562 -8.789062 5.992188 -9.28125 4.734375 -9.96875 C 3.484375 -10.65625 2.460938 -11.554688 1.671875 -12.671875 C 0.890625 -13.796875 0.5 -15.175781 0.5 -16.8125 Z M 0.5 -16.8125 "/></g></g><g style="fill:#d85c0c;fill-opacity:1;"><g transform="translate(101.119382, 82.559846)"><path style="stroke:none" d="M 0 -23.53125 C 0.675781 -23.53125 1.425781 -23.765625 2.25 -24.234375 C 3.082031 -24.710938 3.921875 -25.300781 4.765625 -26 C 5.617188 -26.707031 6.425781 -27.410156 7.1875 -28.109375 C 7.957031 -28.804688 8.632812 -29.390625 9.21875 -29.859375 C 9.800781 -30.328125 10.222656 -30.5625 10.484375 -30.5625 C 10.910156 -30.5625 11.125 -30.296875 11.125 -29.765625 L 11.125 -23.53125 L 14.015625 -23.53125 L 14.015625 -21.859375 L 11.125 -21.859375 L 11.125 -8.265625 C 11.125 -7.390625 11.132812 -6.515625 11.15625 -5.640625 C 11.1875 -4.773438 11.3125 -3.992188 11.53125 -3.296875 C 11.757812 -2.597656 12.164062 -2.0625 12.75 -1.6875 C 12.882812 -1.59375 13.019531 -1.546875 13.15625 -1.546875 C 13.300781 -1.546875 13.457031 -1.523438 13.625 -1.484375 C 13.570312 -1.078125 13.347656 -0.722656 12.953125 -0.421875 C 12.566406 -0.117188 12.101562 0.109375 11.5625 0.265625 C 11.03125 0.421875 10.492188 0.5 9.953125 0.5 C 8.335938 0.5 7.039062 0.234375 6.0625 -0.296875 C 5.09375 -0.835938 4.351562 -1.5625 3.84375 -2.46875 C 3.34375 -3.375 3.007812 -4.390625 2.84375 -5.515625 C 2.675781 -6.640625 2.59375 -7.769531 2.59375 -8.90625 L 2.59375 -19.703125 C 2.59375 -20.035156 2.570312 -20.367188 2.53125 -20.703125 C 2.5 -21.046875 2.375 -21.320312 2.15625 -21.53125 C 1.945312 -21.75 1.578125 -21.859375 1.046875 -21.859375 L 0 -21.859375 Z M 0 -23.53125 "/></g></g><g style="fill:#d85c0c;fill-opacity:1;"><g transform="translate(115.477754, 82.559846)"><path style="stroke:none" d="M 0.34375 0 C 0.789062 -0.445312 1.097656 -0.976562 1.265625 -1.59375 C 1.429688 -2.207031 1.515625 -3 1.515625 -3.96875 L 1.515625 -19.5625 C 1.515625 -20.53125 1.429688 -21.320312 1.265625 -21.9375 C 1.097656 -22.550781 0.789062 -23.082031 0.34375 -23.53125 L 8.578125 -23.53125 C 9.296875 -23.53125 9.78125 -23.28125 10.03125 -22.78125 C 10.289062 -22.28125 10.421875 -21.601562 10.421875 -20.75 L 10.421875 -20.171875 C 10.421875 -19.765625 10.441406 -19.53125 10.484375 -19.46875 C 10.535156 -19.40625 10.59375 -19.375 10.65625 -19.375 C 10.90625 -19.375 11.144531 -19.53125 11.375 -19.84375 C 11.613281 -20.15625 11.890625 -20.546875 12.203125 -21.015625 C 12.515625 -21.484375 12.914062 -21.945312 13.40625 -22.40625 C 13.90625 -22.863281 14.519531 -23.25 15.25 -23.5625 C 15.976562 -23.882812 16.867188 -24.046875 17.921875 -24.046875 C 18.523438 -24.046875 19.148438 -23.96875 19.796875 -23.8125 C 20.453125 -23.65625 21.003906 -23.429688 21.453125 -23.140625 C 21.898438 -22.847656 22.125 -22.476562 22.125 -22.03125 C 22.125 -21.820312 21.925781 -21.34375 21.53125 -20.59375 C 21.144531 -19.84375 20.738281 -19.039062 20.3125 -18.1875 C 19.84375 -17.269531 19.414062 -16.4375 19.03125 -15.6875 C 18.644531 -14.9375 18.296875 -14.5625 17.984375 -14.5625 C 17.628906 -14.5625 17.347656 -14.710938 17.140625 -15.015625 C 16.941406 -15.316406 16.726562 -15.65625 16.5 -16.03125 C 16.28125 -16.414062 15.953125 -16.757812 15.515625 -17.0625 C 15.078125 -17.363281 14.457031 -17.515625 13.65625 -17.515625 C 12.707031 -17.515625 12.003906 -17.273438 11.546875 -16.796875 C 11.085938 -16.316406 10.785156 -15.738281 10.640625 -15.0625 C 10.492188 -14.394531 10.421875 -13.742188 10.421875 -13.109375 L 10.421875 -3.96875 C 10.421875 -3 10.503906 -2.207031 10.671875 -1.59375 C 10.835938 -0.976562 11.144531 -0.445312 11.59375 0 Z M 0.34375 0 "/></g></g><g style="fill:#d85c0c;fill-opacity:1;"><g transform="translate(137.940019, 82.559846)"><path style="stroke:none" d="M 0.171875 -23.53125 L 11.4375 -23.53125 C 10.988281 -23.082031 10.675781 -22.550781 10.5 -21.9375 C 10.332031 -21.320312 10.25 -20.53125 10.25 -19.5625 L 10.25 -8.640625 C 10.25 -7.878906 10.382812 -7.191406 10.65625 -6.578125 C 10.925781 -5.960938 11.429688 -5.65625 12.171875 -5.65625 C 12.691406 -5.65625 13.175781 -5.789062 13.625 -6.0625 C 14.070312 -6.34375 14.429688 -6.832031 14.703125 -7.53125 C 14.984375 -8.226562 15.125 -9.191406 15.125 -10.421875 L 15.125 -19.5625 C 15.125 -20.53125 15.039062 -21.320312 14.875 -21.9375 C 14.707031 -22.550781 14.398438 -23.082031 13.953125 -23.53125 L 25.21875 -23.53125 C 24.769531 -23.082031 24.460938 -22.550781 24.296875 -21.9375 C 24.128906 -21.320312 24.046875 -20.53125 24.046875 -19.5625 L 24.046875 -3.96875 C 24.046875 -3 24.128906 -2.207031 24.296875 -1.59375 C 24.460938 -0.976562 24.769531 -0.445312 25.21875 0 L 16.984375 0 C 16.265625 0 15.773438 -0.25 15.515625 -0.75 C 15.253906 -1.257812 15.125 -1.941406 15.125 -2.796875 L 15.125 -3.359375 C 15.125 -3.765625 15.101562 -4 15.0625 -4.0625 C 15.019531 -4.132812 14.960938 -4.171875 14.890625 -4.171875 C 14.628906 -4.171875 14.367188 -4.015625 14.109375 -3.703125 C 13.847656 -3.390625 13.539062 -3 13.1875 -2.53125 C 12.84375 -2.070312 12.414062 -1.609375 11.90625 -1.140625 C 11.40625 -0.671875 10.769531 -0.28125 10 0.03125 C 9.226562 0.34375 8.269531 0.5 7.125 0.5 C 5.894531 0.5 4.90625 0.257812 4.15625 -0.21875 C 3.40625 -0.695312 2.828125 -1.332031 2.421875 -2.125 C 2.015625 -2.925781 1.738281 -3.785156 1.59375 -4.703125 C 1.445312 -5.628906 1.375 -6.523438 1.375 -7.390625 L 1.34375 -13.8125 L 1.34375 -19.5625 C 1.34375 -20.53125 1.257812 -21.320312 1.09375 -21.9375 C 0.925781 -22.550781 0.617188 -23.082031 0.171875 -23.53125 Z M 0.171875 -23.53125 "/></g></g><g style="fill:#d85c0c;fill-opacity:1;"><g transform="translate(163.495904, 82.559846)"><path style="stroke:none" d="M 0.84375 -11.125 C 0.84375 -12.875 1.09375 -14.523438 1.59375 -16.078125 C 2.101562 -17.640625 2.863281 -19.015625 3.875 -20.203125 C 4.894531 -21.390625 6.175781 -22.328125 7.71875 -23.015625 C 9.269531 -23.703125 11.101562 -24.046875 13.21875 -24.046875 C 14.132812 -24.046875 15.0625 -23.910156 16 -23.640625 C 16.945312 -23.367188 17.8125 -23.019531 18.59375 -22.59375 C 19.375 -22.164062 20.007812 -21.71875 20.5 -21.25 C 21 -20.78125 21.25 -20.34375 21.25 -19.9375 C 21.25 -19.644531 21.101562 -19.320312 20.8125 -18.96875 C 20.519531 -18.625 20.160156 -18.265625 19.734375 -17.890625 C 19.304688 -17.523438 18.894531 -17.164062 18.5 -16.8125 C 18.019531 -16.40625 17.519531 -15.96875 17 -15.5 C 16.488281 -15.03125 16.03125 -14.628906 15.625 -14.296875 C 15.226562 -13.972656 14.941406 -13.8125 14.765625 -13.8125 C 14.492188 -13.8125 14.316406 -13.9375 14.234375 -14.1875 C 14.160156 -14.4375 14.0625 -14.773438 13.9375 -15.203125 C 13.8125 -15.628906 13.5625 -16.109375 13.1875 -16.640625 C 12.488281 -17.628906 11.632812 -18.488281 10.625 -19.21875 C 9.613281 -19.945312 8.5625 -20.3125 7.46875 -20.3125 C 6.5 -20.3125 5.753906 -19.976562 5.234375 -19.3125 C 4.722656 -18.65625 4.46875 -17.820312 4.46875 -16.8125 C 4.46875 -15.71875 4.757812 -14.628906 5.34375 -13.546875 C 5.925781 -12.472656 6.691406 -11.453125 7.640625 -10.484375 C 8.597656 -9.523438 9.65625 -8.679688 10.8125 -7.953125 C 11.96875 -7.222656 13.132812 -6.644531 14.3125 -6.21875 C 15.488281 -5.789062 16.566406 -5.578125 17.546875 -5.578125 C 18.359375 -5.578125 19.007812 -5.664062 19.5 -5.84375 C 19.988281 -6.03125 20.378906 -6.234375 20.671875 -6.453125 C 20.960938 -6.679688 21.203125 -6.882812 21.390625 -7.0625 C 21.585938 -7.238281 21.765625 -7.328125 21.921875 -7.328125 C 22.035156 -7.328125 22.15625 -7.28125 22.28125 -7.1875 C 22.40625 -7.101562 22.46875 -6.914062 22.46875 -6.625 C 22.46875 -6 22.28125 -5.273438 21.90625 -4.453125 C 21.539062 -3.640625 20.976562 -2.851562 20.21875 -2.09375 C 19.46875 -1.34375 18.503906 -0.722656 17.328125 -0.234375 C 16.148438 0.253906 14.753906 0.5 13.140625 0.5 C 11.523438 0.5 9.976562 0.207031 8.5 -0.375 C 7.019531 -0.957031 5.707031 -1.773438 4.5625 -2.828125 C 3.425781 -3.878906 2.519531 -5.109375 1.84375 -6.515625 C 1.175781 -7.929688 0.84375 -9.46875 0.84375 -11.125 Z M 0.84375 -11.125 "/></g></g><g style="fill:#d85c0c;fill-opacity:1;"><g transform="translate(186.630709, 82.559846)"><path style="stroke:none" d="M 0 -23.53125 C 0.675781 -23.53125 1.425781 -23.765625 2.25 -24.234375 C 3.082031 -24.710938 3.921875 -25.300781 4.765625 -26 C 5.617188 -26.707031 6.425781 -27.410156 7.1875 -28.109375 C 7.957031 -28.804688 8.632812 -29.390625 9.21875 -29.859375 C 9.800781 -30.328125 10.222656 -30.5625 10.484375 -30.5625 C 10.910156 -30.5625 11.125 -30.296875 11.125 -29.765625 L 11.125 -23.53125 L 14.015625 -23.53125 L 14.015625 -21.859375 L 11.125 -21.859375 L 11.125 -8.265625 C 11.125 -7.390625 11.132812 -6.515625 11.15625 -5.640625 C 11.1875 -4.773438 11.3125 -3.992188 11.53125 -3.296875 C 11.757812 -2.597656 12.164062 -2.0625 12.75 -1.6875 C 12.882812 -1.59375 13.019531 -1.546875 13.15625 -1.546875 C 13.300781 -1.546875 13.457031 -1.523438 13.625 -1.484375 C 13.570312 -1.078125 13.347656 -0.722656 12.953125 -0.421875 C 12.566406 -0.117188 12.101562 0.109375 11.5625 0.265625 C 11.03125 0.421875 10.492188 0.5 9.953125 0.5 C 8.335938 0.5 7.039062 0.234375 6.0625 -0.296875 C 5.09375 -0.835938 4.351562 -1.5625 3.84375 -2.46875 C 3.34375 -3.375 3.007812 -4.390625 2.84375 -5.515625 C 2.675781 -6.640625 2.59375 -7.769531 2.59375 -8.90625 L 2.59375 -19.703125 C 2.59375 -20.035156 2.570312 -20.367188 2.53125 -20.703125 C 2.5 -21.046875 2.375 -21.320312 2.15625 -21.53125 C 1.945312 -21.75 1.578125 -21.859375 1.046875 -21.859375 L 0 -21.859375 Z M 0 -23.53125 "/></g></g><g style="fill:#d85c0c;fill-opacity:1;"><g transform="translate(200.989082, 82.559846)"><path style="stroke:none" d="M 0 -19.9375 C 0 -20.113281 0.0546875 -20.222656 0.171875 -20.265625 C 0.285156 -20.316406 0.351562 -20.351562 0.375 -20.375 C 0.632812 -20.507812 1.050781 -20.71875 1.625 -21 C 2.195312 -21.28125 2.847656 -21.59375 3.578125 -21.9375 C 4.304688 -22.289062 5.050781 -22.625 5.8125 -22.9375 C 6.570312 -23.25 7.273438 -23.507812 7.921875 -23.71875 C 8.578125 -23.9375 9.109375 -24.046875 9.515625 -24.046875 C 10.003906 -24.046875 10.296875 -23.910156 10.390625 -23.640625 C 10.484375 -23.367188 10.53125 -23.066406 10.53125 -22.734375 L 10.53125 -3.96875 C 10.53125 -3 10.613281 -2.207031 10.78125 -1.59375 C 10.945312 -0.976562 11.253906 -0.445312 11.703125 0 L 0.4375 0 C 0.882812 -0.445312 1.191406 -0.976562 1.359375 -1.59375 C 1.523438 -2.207031 1.609375 -3 1.609375 -3.96875 L 1.609375 -16.875 C 1.609375 -17.007812 1.601562 -17.253906 1.59375 -17.609375 C 1.582031 -17.972656 1.503906 -18.335938 1.359375 -18.703125 C 1.210938 -19.078125 0.925781 -19.332031 0.5 -19.46875 C 0.457031 -19.488281 0.363281 -19.519531 0.21875 -19.5625 C 0.0703125 -19.613281 0 -19.738281 0 -19.9375 Z M 5.984375 -35.609375 C 7.460938 -35.609375 8.648438 -35.160156 9.546875 -34.265625 C 10.441406 -33.367188 10.890625 -32.179688 10.890625 -30.703125 C 10.890625 -29.222656 10.441406 -28.035156 9.546875 -27.140625 C 8.648438 -26.242188 7.460938 -25.796875 5.984375 -25.796875 C 4.503906 -25.796875 3.316406 -26.242188 2.421875 -27.140625 C 1.523438 -28.035156 1.078125 -29.222656 1.078125 -30.703125 C 1.078125 -32.179688 1.523438 -33.367188 2.421875 -34.265625 C 3.316406 -35.160156 4.503906 -35.609375 5.984375 -35.609375 Z M 5.984375 -35.609375 "/></g></g><g style="fill:#d85c0c;fill-opacity:1;"><g transform="translate(212.85911, 82.559846)"><path style="stroke:none" d="M 4.265625 -2.953125 C 3.097656 -4.140625 2.226562 -5.476562 1.65625 -6.96875 C 1.09375 -8.46875 0.820312 -10.003906 0.84375 -11.578125 C 0.863281 -13.160156 1.179688 -14.707031 1.796875 -16.21875 C 2.410156 -17.738281 3.328125 -19.101562 4.546875 -20.3125 C 5.773438 -21.539062 7.148438 -22.460938 8.671875 -23.078125 C 10.203125 -23.703125 11.75 -24.015625 13.3125 -24.015625 C 14.84375 -24.015625 16.328125 -23.726562 17.765625 -23.15625 C 19.210938 -22.582031 20.507812 -21.710938 21.65625 -20.546875 C 22.820312 -19.378906 23.691406 -18.050781 24.265625 -16.5625 C 24.835938 -15.070312 25.109375 -13.535156 25.078125 -11.953125 C 25.054688 -10.367188 24.738281 -8.820312 24.125 -7.3125 C 23.507812 -5.800781 22.597656 -4.441406 21.390625 -3.234375 C 20.148438 -1.992188 18.769531 -1.0625 17.25 -0.4375 C 15.726562 0.1875 14.179688 0.5 12.609375 0.5 C 11.085938 0.5 9.601562 0.21875 8.15625 -0.34375 C 6.707031 -0.914062 5.410156 -1.785156 4.265625 -2.953125 Z M 11.328125 -22.21875 C 10.585938 -22.113281 9.988281 -21.539062 9.53125 -20.5 C 9.070312 -19.457031 8.789062 -18.109375 8.6875 -16.453125 C 8.59375 -14.804688 8.691406 -13 8.984375 -11.03125 C 9.296875 -9.082031 9.75 -7.335938 10.34375 -5.796875 C 10.9375 -4.265625 11.609375 -3.070312 12.359375 -2.21875 C 13.109375 -1.363281 13.84375 -0.992188 14.5625 -1.109375 C 15.28125 -1.222656 15.863281 -1.796875 16.3125 -2.828125 C 16.757812 -3.859375 17.035156 -5.203125 17.140625 -6.859375 C 17.253906 -8.515625 17.164062 -10.332031 16.875 -12.3125 C 16.582031 -14.257812 16.140625 -16 15.546875 -17.53125 C 14.953125 -19.070312 14.285156 -20.265625 13.546875 -21.109375 C 12.804688 -21.960938 12.066406 -22.332031 11.328125 -22.21875 Z M 11.328125 -22.21875 "/></g></g><g style="fill:#d85c0c;fill-opacity:1;"><g transform="translate(238.784873, 82.559846)"><path style="stroke:none" d="M 11.59375 0 L 0.34375 0 C 0.789062 -0.445312 1.097656 -0.976562 1.265625 -1.59375 C 1.429688 -2.207031 1.515625 -3 1.515625 -3.96875 L 1.515625 -19.5625 C 1.515625 -20.53125 1.429688 -21.320312 1.265625 -21.9375 C 1.097656 -22.550781 0.789062 -23.082031 0.34375 -23.53125 L 8.578125 -23.53125 C 9.296875 -23.53125 9.78125 -23.28125 10.03125 -22.78125 C 10.289062 -22.28125 10.421875 -21.601562 10.421875 -20.75 L 10.421875 -20.171875 C 10.421875 -19.765625 10.441406 -19.53125 10.484375 -19.46875 C 10.535156 -19.40625 10.59375 -19.375 10.65625 -19.375 C 10.925781 -19.375 11.191406 -19.53125 11.453125 -19.84375 C 11.710938 -20.15625 12.015625 -20.546875 12.359375 -21.015625 C 12.703125 -21.484375 13.125 -21.945312 13.625 -22.40625 C 14.132812 -22.863281 14.773438 -23.25 15.546875 -23.5625 C 16.328125 -23.882812 17.285156 -24.046875 18.421875 -24.046875 C 19.660156 -24.046875 20.65625 -23.800781 21.40625 -23.3125 C 22.15625 -22.832031 22.726562 -22.191406 23.125 -21.390625 C 23.53125 -20.597656 23.804688 -19.742188 23.953125 -18.828125 C 24.097656 -17.910156 24.171875 -17.015625 24.171875 -16.140625 L 24.203125 -9.71875 L 24.203125 -3.96875 C 24.203125 -3 24.285156 -2.207031 24.453125 -1.59375 C 24.628906 -0.976562 24.941406 -0.445312 25.390625 0 L 14.125 0 C 14.570312 -0.445312 14.878906 -0.976562 15.046875 -1.59375 C 15.210938 -2.207031 15.296875 -3 15.296875 -3.96875 L 15.296875 -14.890625 C 15.296875 -15.679688 15.160156 -16.378906 14.890625 -16.984375 C 14.628906 -17.585938 14.125 -17.890625 13.375 -17.890625 C 12.863281 -17.890625 12.382812 -17.75 11.9375 -17.46875 C 11.488281 -17.1875 11.125 -16.703125 10.84375 -16.015625 C 10.5625 -15.335938 10.421875 -14.367188 10.421875 -13.109375 L 10.421875 -3.96875 C 10.421875 -3 10.503906 -2.207031 10.671875 -1.59375 C 10.835938 -0.976562 11.144531 -0.445312 11.59375 0 Z M 11.59375 0 "/></g></g><g style="fill:#d85c0c;fill-opacity:1;"><g transform="translate(264.340758, 82.559846)"><path style="stroke:none" d="M 0.671875 -3.90625 C 0.671875 -4.707031 0.863281 -5.4375 1.25 -6.09375 C 1.644531 -6.757812 2.175781 -7.285156 2.84375 -7.671875 C 3.519531 -8.066406 4.265625 -8.265625 5.078125 -8.265625 C 5.878906 -8.265625 6.609375 -8.066406 7.265625 -7.671875 C 7.929688 -7.285156 8.460938 -6.757812 8.859375 -6.09375 C 9.253906 -5.4375 9.453125 -4.707031 9.453125 -3.90625 C 9.453125 -3.09375 9.253906 -2.347656 8.859375 -1.671875 C 8.460938 -1.003906 7.929688 -0.472656 7.265625 -0.078125 C 6.609375 0.304688 5.878906 0.5 5.078125 0.5 C 4.265625 0.5 3.519531 0.304688 2.84375 -0.078125 C 2.175781 -0.472656 1.644531 -1.003906 1.25 -1.671875 C 0.863281 -2.347656 0.671875 -3.09375 0.671875 -3.90625 Z M 0.671875 -3.90625 "/></g></g></g></g><g mask="url(#0a93abe851)" transform="matrix(1,0,0,1,38,60)"><g clip-path="url(#da97737d26)"><g style="fill:#f4f3ee;fill-opacity:1;"><g transform="translate(2.92707, 17.195762)"><path style="stroke:none" d="M 3.890625 -11.78125 C 3.867188 -11.550781 3.738281 -11.328125 3.5 -11.109375 C 3.269531 -10.890625 3.035156 -10.757812 2.796875 -10.71875 C 2.691406 -10.707031 2.582031 -10.707031 2.46875 -10.71875 C 2.363281 -10.726562 2.195312 -10.789062 1.96875 -10.90625 C 1.738281 -11.03125 1.414062 -11.25 1 -11.5625 C 0.59375 -11.875 0.0390625 -12.328125 -0.65625 -12.921875 C -0.75 -12.992188 -0.847656 -13.101562 -0.953125 -13.25 C -1.054688 -13.40625 -1.125 -13.582031 -1.15625 -13.78125 C -1.195312 -14.0625 -1.132812 -14.335938 -0.96875 -14.609375 C -0.8125 -14.878906 -0.601562 -15.117188 -0.34375 -15.328125 C -0.09375 -15.546875 0.15625 -15.671875 0.40625 -15.703125 C 0.539062 -15.722656 0.660156 -15.726562 0.765625 -15.71875 C 0.972656 -15.6875 1.148438 -15.617188 1.296875 -15.515625 C 1.453125 -15.421875 1.582031 -15.328125 1.6875 -15.234375 C 2.257812 -14.546875 2.703125 -13.992188 3.015625 -13.578125 C 3.328125 -13.160156 3.539062 -12.84375 3.65625 -12.625 C 3.78125 -12.414062 3.847656 -12.25 3.859375 -12.125 C 3.878906 -12.007812 3.890625 -11.894531 3.890625 -11.78125 Z M 3.890625 -11.78125 "/></g></g></g><mask id="0a93abe851"><g filter="url(#34aad61a42)"><rect x="0" width="375" y="0" height="187.499995" style="fill:#000000;fill-opacity:0.72;stroke:none;"/></g></mask></g><g mask="url(#aabeb4a8ec)" transform="matrix(1,0,0,1,38,69)"><g clip-path="url(#3521740832)"><g style="fill:#f4f3ee;fill-opacity:1;"><g transform="translate(2.92707, 17.316817)"><path style="stroke:none" d="M 3.890625 -11.78125 C 3.867188 -11.550781 3.738281 -11.328125 3.5 -11.109375 C 3.269531 -10.890625 3.035156 -10.757812 2.796875 -10.71875 C 2.691406 -10.707031 2.582031 -10.707031 2.46875 -10.71875 C 2.363281 -10.726562 2.195312 -10.789062 1.96875 -10.90625 C 1.738281 -11.03125 1.414062 -11.25 1 -11.5625 C 0.59375 -11.875 0.0390625 -12.328125 -0.65625 -12.921875 C -0.75 -12.992188 -0.847656 -13.101562 -0.953125 -13.25 C -1.054688 -13.40625 -1.125 -13.582031 -1.15625 -13.78125 C -1.195312 -14.0625 -1.132812 -14.335938 -0.96875 -14.609375 C -0.8125 -14.878906 -0.601562 -15.117188 -0.34375 -15.328125 C -0.09375 -15.546875 0.15625 -15.671875 0.40625 -15.703125 C 0.539062 -15.722656 0.660156 -15.726562 0.765625 -15.71875 C 0.972656 -15.6875 1.148438 -15.617188 1.296875 -15.515625 C 1.453125 -15.421875 1.582031 -15.328125 1.6875 -15.234375 C 2.257812 -14.546875 2.703125 -13.992188 3.015625 -13.578125 C 3.328125 -13.160156 3.539062 -12.84375 3.65625 -12.625 C 3.78125 -12.414062 3.847656 -12.25 3.859375 -12.125 C 3.878906 -12.007812 3.890625 -11.894531 3.890625 -11.78125 Z M 3.890625 -11.78125 "/></g></g></g><mask id="aabeb4a8ec"><g filter="url(#34aad61a42)"><rect x="0" width="375" y="0" height="187.499995" style="fill:#000000;fill-opacity:0.72;stroke:none;"/></g></mask></g><g mask="url(#b3f837acfa)" transform="matrix(1,0,0,1,46,66)"><g clip-path="url(#d9717393e9)"><g style="fill:#f4f3ee;fill-opacity:1;"><g transform="translate(2.560884, 17.495953)"><path style="stroke:none" d="M 3.890625 -11.78125 C 3.867188 -11.550781 3.738281 -11.328125 3.5 -11.109375 C 3.269531 -10.890625 3.035156 -10.757812 2.796875 -10.71875 C 2.691406 -10.707031 2.582031 -10.707031 2.46875 -10.71875 C 2.363281 -10.726562 2.195312 -10.789062 1.96875 -10.90625 C 1.738281 -11.03125 1.414062 -11.25 1 -11.5625 C 0.59375 -11.875 0.0390625 -12.328125 -0.65625 -12.921875 C -0.75 -12.992188 -0.847656 -13.101562 -0.953125 -13.25 C -1.054688 -13.40625 -1.125 -13.582031 -1.15625 -13.78125 C -1.195312 -14.0625 -1.132812 -14.335938 -0.96875 -14.609375 C -0.8125 -14.878906 -0.601562 -15.117188 -0.34375 -15.328125 C -0.09375 -15.546875 0.15625 -15.671875 0.40625 -15.703125 C 0.539062 -15.722656 0.660156 -15.726562 0.765625 -15.71875 C 0.972656 -15.6875 1.148438 -15.617188 1.296875 -15.515625 C 1.453125 -15.421875 1.582031 -15.328125 1.6875 -15.234375 C 2.257812 -14.546875 2.703125 -13.992188 3.015625 -13.578125 C 3.328125 -13.160156 3.539062 -12.84375 3.65625 -12.625 C 3.78125 -12.414062 3.847656 -12.25 3.859375 -12.125 C 3.878906 -12.007812 3.890625 -11.894531 3.890625 -11.78125 Z M 3.890625 -11.78125 "/></g></g></g><mask id="b3f837acfa"><g filter="url(#34aad61a42)"><rect x="0" width="375" y="0" height="187.499995" style="fill:#000000;fill-opacity:0.72;stroke:none;"/></g></mask></g><g mask="url(#b1660fd3d4)" transform="matrix(1,0,0,1,46,56)"><g clip-path="url(#dd35502551)"><g style="fill:#f4f3ee;fill-opacity:1;"><g transform="translate(2.560884, 17.540734)"><path style="stroke:none" d="M 3.890625 -11.78125 C 3.867188 -11.550781 3.738281 -11.328125 3.5 -11.109375 C 3.269531 -10.890625 3.035156 -10.757812 2.796875 -10.71875 C 2.691406 -10.707031 2.582031 -10.707031 2.46875 -10.71875 C 2.363281 -10.726562 2.195312 -10.789062 1.96875 -10.90625 C 1.738281 -11.03125 1.414062 -11.25 1 -11.5625 C 0.59375 -11.875 0.0390625 -12.328125 -0.65625 -12.921875 C -0.75 -12.992188 -0.847656 -13.101562 -0.953125 -13.25 C -1.054688 -13.40625 -1.125 -13.582031 -1.15625 -13.78125 C -1.195312 -14.0625 -1.132812 -14.335938 -0.96875 -14.609375 C -0.8125 -14.878906 -0.601562 -15.117188 -0.34375 -15.328125 C -0.09375 -15.546875 0.15625 -15.671875 0.40625 -15.703125 C 0.539062 -15.722656 0.660156 -15.726562 0.765625 -15.71875 C 0.972656 -15.6875 1.148438 -15.617188 1.296875 -15.515625 C 1.453125 -15.421875 1.582031 -15.328125 1.6875 -15.234375 C 2.257812 -14.546875 2.703125 -13.992188 3.015625 -13.578125 C 3.328125 -13.160156 3.539062 -12.84375 3.65625 -12.625 C 3.78125 -12.414062 3.847656 -12.25 3.859375 -12.125 C 3.878906 -12.007812 3.890625 -11.894531 3.890625 -11.78125 Z M 3.890625 -11.78125 "/></g></g></g><mask id="b1660fd3d4"><g filter="url(#34aad61a42)"><rect x="0" width="375" y="0" height="187.499995" style="fill:#000000;fill-opacity:0.72;stroke:none;"/></g></mask></g><g mask="url(#f90e443a5a)" transform="matrix(1,0,0,1,46,78)"><g clip-path="url(#17a0af305d)"><g clip-rule="nonzero" clip-path="url(#c272bf0ef4)"><g style="fill:#f4f3ee;fill-opacity:1;"><g transform="translate(2.560884, 16.748181)"><path style="stroke:none" d="M 3.890625 -11.78125 C 3.867188 -11.550781 3.738281 -11.328125 3.5 -11.109375 C 3.269531 -10.890625 3.035156 -10.757812 2.796875 -10.71875 C 2.691406 -10.707031 2.582031 -10.707031 2.46875 -10.71875 C 2.363281 -10.726562 2.195312 -10.789062 1.96875 -10.90625 C 1.738281 -11.03125 1.414062 -11.25 1 -11.5625 C 0.59375 -11.875 0.0390625 -12.328125 -0.65625 -12.921875 C -0.75 -12.992188 -0.847656 -13.101562 -0.953125 -13.25 C -1.054688 -13.40625 -1.125 -13.582031 -1.15625 -13.78125 C -1.195312 -14.0625 -1.132812 -14.335938 -0.96875 -14.609375 C -0.8125 -14.878906 -0.601562 -15.117188 -0.34375 -15.328125 C -0.09375 -15.546875 0.15625 -15.671875 0.40625 -15.703125 C 0.539062 -15.722656 0.660156 -15.726562 0.765625 -15.71875 C 0.972656 -15.6875 1.148438 -15.617188 1.296875 -15.515625 C 1.453125 -15.421875 1.582031 -15.328125 1.6875 -15.234375 C 2.257812 -14.546875 2.703125 -13.992188 3.015625 -13.578125 C 3.328125 -13.160156 3.539062 -12.84375 3.65625 -12.625 C 3.78125 -12.414062 3.847656 -12.25 3.859375 -12.125 C 3.878906 -12.007812 3.890625 -11.894531 3.890625 -11.78125 Z M 3.890625 -11.78125 "/></g></g></g></g><mask id="f90e443a5a"><g filter="url(#34aad61a42)"><rect x="0" width="375" y="0" height="187.499995" style="fill:#000000;fill-opacity:0.72;stroke:none;"/></g></mask></g></g></svg>